/* XPM */
static char *_33d300e6e6f4e48f647b3d3e90aee1eF0PiyYXzShKXYGi7[] = {
/* columns rows colors chars-per-pixel */
"64 64 78 1 ",
"  c #3F5376",
". c #405276",
"X c #415377",
"o c #435377",
"O c #405475",
"+ c #415475",
"@ c #405477",
"# c #415379",
"$ c #415578",
"% c #405479",
"& c #425478",
"* c #42547A",
"= c #4F6283",
"- c #516183",
"; c #526083",
": c #526283",
"> c #516185",
", c #536184",
"< c #506384",
"1 c #526284",
"2 c #536385",
"3 c #526286",
"4 c #536387",
"5 c #546285",
"6 c #516485",
"7 c #7788A2",
"8 c #7888A2",
"9 c #7989A2",
"0 c #7889A3",
"q c #7989A3",
"w c #7A88A3",
"e c #7988A5",
"r c #7889A5",
"t c #7A8AA4",
"y c #A2ADBF",
"u c #A3AFBF",
"i c #A3AEC0",
"p c #A2AFC0",
"a c #A3AEC2",
"s c #A2AFC2",
"d c #A5ADC0",
"f c #A4AFC1",
"g c #A3B0C1",
"h c #CCD3DB",
"j c #CED2DB",
"k c #CBD1DD",
"l c #CBD2DC",
"z c #CCD3DD",
"x c #CED2DD",
"c c #CCD2DE",
"v c #CBD4DD",
"b c #CDD4DE",
"n c gray93",
"m c #EEECED",
"M c #EDEFEC",
"N c #ECEEED",
"B c #EEEEEC",
"V c #EFEEEC",
"C c #EFEFED",
"Z c #EDEDEF",
"A c #EFEDEE",
"S c #EDEFEE",
"D c #EEEEEE",
"F c #EFEFEF",
"G c #F0EEEF",
"H c #EEF0EF",
"J c #EFEDF0",
"K c #EDEEF0",
"L c #EEEEF0",
"P c #EFEFF1",
"I c #FEFEFC",
"U c #FEFFFD",
"Y c #FFFFFD",
"T c #FFFDFE",
"R c #FEFEFE",
"E c #FFFEFF",
"W c #FEFFFF",
"Q c white",
/* pixels */
"DDQQQQQQQQQQQQIQQQQzw1%+#111111111,+%+#XqfDQQQQDDDDDDDDDDDDDDDQQ",
"DDQQQQQQQQQQQQQQQf1X%X,11111111111-,,1,-#+-qGQQHDDDDDDDDDDDDDDQQ",
"DDQQQQQQQQQQQQQk-+#11111XX++11111##X%+,1-1XXXqGQDDDDDDDmDDDDDDQQ",
"DDQQQQQQQQIQQDe X1111XXX1qfzq%11%zzfw,+%X1111%XfDQDDDDDDDDDDDDQQ",
"DDQQQQQQQQQQyXX1111+XqykQQQQw =1+DQQQQzy-X+1111X-bQDDDDDDDDDDDQQ",
"QQDDDDDDDQDqX1111%-fDQQQQQQTwX11XjQDDDQQDfeXX11-X#fQQQQQQQQQQQDD",
"QQDDDDDDQk=X11-X+7DQQQQQQQQQq+XXXhQDDDDDQQQz1 X1-1+fQQQQQQQQQQDD",
"QQDDDDDQb-#111X-kQQQQQQQQQQQkiiyinDDDDDDDDDQDi-X1-+%qQQQQQQQQQFD",
"QQDGDDQz2+11#+7DQQQQQQQQQQQQQQQQQDDDDDDDDDDDQQz=%111XqQQQQQQQQBD",
"QQDDDQD1+11X1iQQnQQQQQQQQQQQQQQQDDDDDDDDDDDDDDQQq+1-1XyQQQQQQQDD",
"QQDDQJqX11X1zQDDDQQQQQQQQQQQQQQQDDDDDDDDDDDDDDDQQqX-1XXiQQQQQQDD",
"QQDDQq%11#1zQDDDnQQQQQQQQQQQQQqzQDDDDDDDDJDDDDDQQQeX11 1hQQQQQDn",
"QQDQkX111XiQDDDDDQQQQQQQQQQQQQXyQDDDDDDDDDDDDDDQQQQqX;1X1QQQQQDD",
"QQQm1X11XiQDDDDDDQQQQQQQQQQQQQ1gQDDDDDDDDDDDDGmQQQQQ1X11XiQQQQDD",
"QQQiX11XeQDDDDDBDQQQQQQQQQQTQQ1gQDDDDDDDDDDDDDDQQQQQDX11X DQQQDB",
"QQk1#1X1DQDDDDDDnQQQTQQQQQQQQQ1yQDDDDDDDDDDDDBDQQQQIQiX11#7QQQDD",
"QQqX11+iQDDnDDDDDQQQQQQQQQQQQQ1fQDDDDDDDDDDDDDDQQQQQQQqX-1 zQQDD",
"QD11111DDDDDDDDDDQQQQQQQQQQQQQ-fQDDDDDDDDDDDDDDQQQQQQQh#11XqQQDD",
"Qy+-1#iQDDDDDDDDDQQQQQQQQQQQQQ;yQDDDDDDDDDDDDDDQQQQQQQQqX11XDQDD",
"Q-#1+1DDDDDnDDDDDQQQQQQQIQQQQQ-yQDDDDDmDDDDDDDDQQQQQQQQbX11#iQDD",
"kX11#iQQQQQQQQQQQDDDDDDDDDDDDQ1iQQQQQQQQQQQQQQQDDDDDDDDD-#1 qQQQ",
"yX11XDQQQQQQQQQQQDDDDDDDDDDBDQ1iQQQQQQQQQQQQQQQDDDDHDDDQy#11XkQQ",
"q 1#-QQQQQQQQQQQQDDDDDDDDDDDDQ+iQQQQQQQQQQQQQQQDDDDDDDDQzX11XiQQ",
"111XiQQQQQQQQQQQQDDDDDDDDDDDDDizQQQQQQQQQQQQQQQDDDDDDDDDD111XqQQ",
"X11#zQQQQQQQQQQQQDDDDDDDDDGPHDQDQQQQIQQQQQQQQQQDDDDDDDDDQq#-o1QQ",
"X1-XDQQQQQQQQQQQQnnDDDDDDDDDHDDDQQQQQQQQQQQQQQQDDDDDDDQQQy+611QQ",
"X11-zDDzDQQQQQQQQDDDDDDDDDDDDDDDIQQQQQQQQQQQQQQDBDDDDbzzDfX,11zD",
"-1111XXXXQQQQQQQQQQQQQQQQHDDPJDDQQQQQQQIQQQQQQQQQDJQyXX%X---1X1X",
"111,111X-QQQByhhyyyiiiyiiDDDDDJDQQQQDyzykikfzyzukDDQy#11-22-1111",
"11111111-QQQz#XXXXXXXXXX1DDDDDDDQQQQh XXX#+%XXXX-HDQfX1-2-221111",
"1111#XXX QQQQQQQQDDDDDDDDDDDDDDDQQQQQQQQQQQQQQQBDQDQuXXX+X2---%X",
"1-,1qqqqqQQQQQQQQDQDQDQDDDDDJDDDQQQQQQQQQQQQQQQDDDDDzqqqeq,6,Xqq",
"+1XqQQQQQQQQQQQQQnDDDDDDDDDDDDDDQQQQQQQQQQQQQQQDDDDDnQQQQkX,1%DQ",
"#1X1QQQQQQQQQQQQQDDDDDDDDDDDDDDDQQQQQQQQQQQQQQQDDDDDDDDDQk%11+DQ",
"X11XDQQQQQQQQQQQQDDDDDDDDDDDDDGDQQQQQQQQQQQQQQQDDDDnDDDnQy%111QQ",
"X11+kQDDDDDDDDDDDQQQQQQQQQQQQQ1yQmDDDDDnDDDDnDDQQQQQQQQQQq+1X1QD",
"X--%yQDDDDDDDDDDDQQQQQQQQQQQQQXfQDDDDDDDDDDDDDDQQQQQQIQQQ1#1XqQD",
"=%,%qQDDDDDDDDDDDQQQQQQQQQQQQQ-yQDDDDDDDDDDDDDDQQQQQQQQQD#11XiQD",
"u%,-1DDDDDDDDDDDDQQQQQQQQQQQQQ1iQDDDDDDDDDDDDDDQQQQQQQQQfX11XDQD",
"z+2- yQDDDDDDDDDDQQQQQQQQQQQQQ1iQDDDDDDnDDDDDDDQQQQQQQQQwX1+-QFD",
"Q1#1XwQDDDDDDJDBDQQQQQQQQQQQQQ1yQDDDDDDDDDDDDDDQQQQQQQQDX-1#iQDD",
"Qq%,1XzQDDDJHnDDDQQQQQQQQQQQQQ1iQDDDDDDDDDDDDDDQQQQQQQQqX-1+GQDD",
"QD+11XwQDDDDDDDDDQQQQQQQQQQQQQ-yQDDDDDDDDDDDDDDQQQQQQQDX-1%qQQDD",
"QQe+-1#zQDDDDDDDDQQQQQQQQQQQQQ-yQDDDDDDDDDDDDDDQQQQQQQqX11+jQQDD",
"QQzX11X1DQDDDnDDDQQQQQQQQQQQQQ1yQDDDDDDDDDDDDDDQQQQQQk+11%1QQQDD",
"QQQeX11XiQDDDDnnDQQQQQQQQQQQQQ,fQDDDDDDDDDDDDDDQQQQQQ-X11+kQQQDD",
"QQQzX16XXkQDDnDDDQQQQQQQQQQQQQ#yQDDDDDDDDDDDDDDQQQQQqo,1#qQQQQDD",
"QQDQyX11X-DQDnDmDQQQQQQQQQQQQQzDnDDDnDDDDDDDDDDQQQQy#11X-DQQQQDJ",
"QQDDDwX11#1DQDDDDQQQQQQQQQQQQQQQDDDDDDDmDDDDDDDQQQkXo1,XfQQQQQDm",
"QQDDQz-#--+qDQDDnQQQQQQQQQQQQQQQDDDJDDDDDDDDnDDQQhXX1-XqQQQQQQDD",
"DDQQQQzXX--X1DQQQDDDDDDDDDDDDDQDQQQQQQQQQQQQQQQQi# -1#qBQDDDBDQQ",
"DDQQQQQyXX-,X1zQQDDDnDDDDDDQq111-kQQQQQQQQQQQQQyX11- 1DQDDDDBDQQ",
"DDQQQQQQfX%11XXiQQDDDDDDDJDQ7+1%XDQQQQQQQQQQQDwX111X1vQDDDBBDDQQ",
"DDQQQQQQQuX+11XX1bQQDJDDDnnQe#11XDQQQQQQQQQQdXX111X1DQHPDDDDDDQQ",
"DDQQQQQQQTz-X1--%+ezQQQDDDDQq 11XDQQQQQQQQy=XX11XXqDQDDDDDmDBDQQ",
"DDQQQQQQQQQDqXX111+XqiDQQQQQq+11XDQQQQQki1XX111XXyQQDJDDDDDDDDQQ",
"DDQQQQQQQQQQQy-X1111XXXqibzQe+11XDQziq-X++111#X1vQDJDDDDDDDDDDQQ",
"DDQQQQQQQQQQIQBeX 1111-#X+-61111--,#XX+---1#X1fmQDDDDDDDDDDDDDQQ",
"DDQQQQQQQQQQQQQQjqXX#-2111-,111111111,11-XX=uQQDDDDDDDDDDDDDDDQQ",
"DDQQQQQQQQQQQQQQQQzf1%+#11-6111111111XX#XqyQQQQDDDDDDDDDDDDDDDQQ",
"DDQQQQQQQQQQQQQQQDQQDziq1+#XX1111XXX+1efDQQQQQQDDDDDDDDDDDDDDDQQ",
"DDQQQQQQQQQQQQQQQDDDDQQQDkzi111-XyzzDQQQQQQQQQQDDDDDDDDDDDDDDDQQ",
"DDQQQQQQQQQQQQQQQDDDDDDDDQQQqX11oDQQQQQQQQQQQQQDDDDDDDDDDDDDDDQQ",
"DDQQQQQQQQQIQQQQQDDDDDDDDDDQq+11XDIQQQQQQQQQQQQDDDDDDDDmDDDDDDQQ"
};
