/* XPM */
static char *_5643feb85c54655b19cfe56fd984e64b61cBsWw3IVysTcW[] = {
/* columns rows colors chars-per-pixel */
"64 64 253 2 ",
"   c None",
".  c #000008",
"X  c #0B2B00",
"o  c #2F2C22",
"O  c #731F00",
"+  c #1B4B0B",
"@  c #214715",
"#  c #384F1C",
"$  c #235612",
"%  c #295F18",
"&  c #2F671B",
"*  c #2E601E",
"=  c #2E661D",
"-  c #30671B",
";  c #336D1F",
":  c #3A5920",
">  c #367122",
",  c #397525",
"<  c #3B7827",
"1  c #3E772B",
"2  c #3D712D",
"3  c #3E752E",
"4  c #3D7A29",
"5  c #446117",
"6  c #65651E",
"7  c #5E4A23",
"8  c #555037",
"9  c #456925",
"0  c #456E27",
"q  c #457229",
"w  c #45752A",
"e  c #407C2D",
"r  c #5C6D33",
"t  c #517C33",
"y  c #6F7825",
"u  c #434343",
"i  c #535353",
"p  c #746D49",
"a  c gray39",
"s  c #777777",
"d  c #FE0000",
"f  c #FD2C1C",
"g  c #AF4F00",
"h  c #817B2F",
"j  c #EB6300",
"k  c #FC5033",
"l  c #FF7F23",
"z  c #FF7373",
"x  c #478733",
"c  c #4B8232",
"v  c #4D8232",
"b  c #4F8232",
"n  c #488733",
"m  c #498336",
"M  c #4A8337",
"N  c #4D8C39",
"B  c #528132",
"V  c #548235",
"C  c #588236",
"Z  c #518C37",
"A  c #548E39",
"S  c #598B39",
"D  c #5E8D3B",
"F  c #5C8B3C",
"G  c #5F8C3C",
"H  c #58903B",
"J  c #5C933E",
"K  c #77852D",
"L  c #7B8A2E",
"P  c #618238",
"I  c #67823A",
"U  c #648F3D",
"Y  c #7F9033",
"T  c #559441",
"R  c #569443",
"E  c #5E9140",
"W  c #589444",
"Q  c #589745",
"!  c #599745",
"~  c #5C9848",
"^  c #5D9B4A",
"/  c #608840",
"(  c #798545",
")  c #649340",
"_  c #619641",
"`  c #629646",
"'  c #6B9140",
"]  c #6B9644",
"[  c #619844",
"{  c #689A45",
"}  c #6D9844",
"|  c #669C48",
" . c #619D4D",
".. c #689C48",
"X. c #699E4C",
"o. c #769346",
"O. c #719746",
"+. c #749444",
"@. c #749A48",
"#. c #709C4A",
"$. c #749C48",
"%. c #7B9B4B",
"&. c #7F9F4D",
"*. c #7D9F4F",
"=. c #7D9B50",
"-. c #6EA14D",
";. c #6DA24F",
":. c #70A14D",
">. c #77A24D",
",. c #63A050",
"<. c #67A353",
"1. c #6FA352",
"2. c #6AA657",
"3. c #77A754",
"4. c #7AA150",
"5. c #78A653",
"6. c #7EA655",
"7. c #828131",
"8. c #838633",
"9. c #898B35",
"0. c #898E36",
"q. c #84903A",
"w. c #849438",
"e. c #8E9A3D",
"r. c #8F9A3D",
"t. c #8A9D3D",
"y. c #9C9132",
"u. c #92953E",
"i. c #9D9539",
"p. c #93993D",
"a. c #919A3D",
"s. c #A39435",
"d. c #AE963B",
"f. c #AA9F3A",
"g. c #B29D39",
"h. c #B3A03E",
"j. c #F39317",
"k. c #D89927",
"l. c #F39C21",
"z. c #8C9B40",
"x. c #82964B",
"c. c #9E9A42",
"v. c #A99C48",
"b. c #B99745",
"n. c #9CA243",
"m. c #9AA145",
"M. c #85A355",
"N. c #85A654",
"B. c #86A757",
"V. c #88A051",
"C. c #88A352",
"Z. c #8DA553",
"A. c #81A855",
"S. c #83A954",
"D. c #81AB57",
"F. c #8CAB57",
"G. c #89AD57",
"H. c #85A458",
"J. c #8EA05A",
"K. c #8BA95A",
"L. c #8BAB5A",
"P. c #98A659",
"I. c #95AD5D",
"U. c #82B15F",
"Y. c #88B25E",
"T. c #8DB15C",
"R. c #8FB05E",
"E. c #A1A346",
"W. c #AEA74C",
"Q. c #A7AA4B",
"!. c #ABAA4F",
"~. c #ACAA4E",
"^. c #ABAC4F",
"/. c #ACAC4D",
"(. c #AEAE4F",
"). c #B4AA45",
"_. c #B7AF47",
"`. c #B9A943",
"'. c #BCAC48",
"]. c #B2AD50",
"[. c #AFB252",
"{. c #A1B25F",
"}. c #B1B153",
"|. c #B5B051",
" X c #BBB355",
".X c #B9B357",
"XX c #BCB155",
"oX c #BFB858",
"OX c #BCBA59",
"+X c #BEB95B",
"@X c #86B565",
"#X c #8BB462",
"$X c #99B660",
"%X c #9BB463",
"&X c #98BC69",
"*X c #A4A860",
"=X c #AAB364",
"-X c #A3BF6A",
";X c #B9BE6D",
":X c #C79E43",
">X c #C6AA42",
",X c #C7AC42",
"<X c #C4AE45",
"1X c #C6AF4B",
"2X c #C3B14C",
"3X c #C7B34D",
"4X c #C3B64D",
"5X c #CCB54F",
"6X c #D0B049",
"7X c #DEB14A",
"8X c #DFB64A",
"9X c #D8B74C",
"0X c #D5B94F",
"qX c #DDBA4F",
"wX c #CEB750",
"eX c #CBBA57",
"rX c #C1B858",
"tX c #C3B95A",
"yX c #C7B95B",
"uX c #D2B752",
"iX c #D0B953",
"pX c #D2BD55",
"aX c #D5BC54",
"sX c #EDBE4F",
"dX c #E0BB50",
"fX c #FD9C7E",
"gX c #FFAF6F",
"hX c #8BC377",
"jX c #A9C16B",
"kX c #ABC06A",
"lX c #AAC571",
"zX c #A0CB7D",
"xX c #B3C872",
"cX c #C8C15F",
"vX c #DBC058",
"bX c #DEC05A",
"nX c #F7C34F",
"mX c #CDC664",
"MX c #979797",
"NX c #FF9797",
"BX c #FFBFBF",
"VX c #BED685",
"CX c #F7EC95",
"ZX c #F8ED95",
"AX c #F9ED95",
"SX c #FAED95",
"DX c #F9EE95",
"FX c #FAEE95",
"GX c #F9EE96",
"HX c #FAEE96",
"JX c #FBEF97",
"KX c #FFFFFE",
"LX c white",
/* pixels */
"                                                                                                                                ",
"                                                                                                                                ",
"                                                                                                                                ",
"                                                        + + + + + + 9 9                                                         ",
"                                                  + + + & & & & & Y r.a.h.h.9.                                                  ",
"                                            + + + & x x x x x & & x x J ..>.SXSXSXI                                             ",
"                                        + + + x x x <.<.x x x & & x x N Q 1.[ ..SX2Xc.9                                         ",
"                                      + + & & x <.<.<.<.x x x x x x x x ^ ^ ,.1.| L.SXc.9                                       ",
"                                    + + & & x x <.<.<.<.x x x x x x x x W ^ ^ #XT.jXJXSX9 +                                     ",
"                                    + & & & x x x x <.<.x x x x x x x x ^ -.X.D.xXmXSXm.- +                                     ",
"                                  + + + + + + + + x x x <.x x & & x x ^ _ D.-./ q.SXSXy y + +                                   ",
"                              + + + + & & & & & & & & x x x x x x x x J ..F z.).w.& & - L s.y + +                               ",
"                            + + & & & & & x x x x x x & & x x x x x t.a.p.4X_.x x x m m = & `.`.+ +                             ",
"                            + & & & x x x <.<.hX<.<.x x & & + + + + & & n t.<.<.hX<.2.t x x +.5Xa.+                             ",
"                            + & & x <.. O g l . l g O . & + & & L f.s.& . O g l . j.g O . <.D.0XSX+                             ",
"                            + & & x . O g j gX. gXj g O & & x <.<.t.>Xf.O g j gX. gXj g O . -XtXSX+                             ",
"                            + & & x <.. O g l . l g O . & x <.hXhX<.x L 7 O g l . j.g O 8 lXcXSXSX+                             ",
"                              + & & x x x x <.hXhX<.& & x . . x x . 7 t.; B Y.VXVXlX$X$X$XcXaXSX+                               ",
"                                + + & & & & & & & + & x x & & <.<.& & x x B o.{.V.M.Z.rXwXSXSX+                                 ",
"                          + + + + + X X X X + + + & x x x x <.<.<.<.x x x x Z.x.W.8.d.h # X 9 9 + + +                           ",
"                      + + + & + + X + + + + X . x KXBXBXNX. . . . . . NXBXBXKX[.p o + + + + # I 9 & * 2 2                       ",
"                    + + & x & & + + + & & & + . x z z . . . . . . . . . . z fXOXCX+ - - - 3 t W.+.& ! m 2 *                     ",
"                  + + x x x x x + & & x x & & . x d d . z . . . . . . z o f k pXSX& * m Q M E !.[.{ x R 3.!.9                   ",
"                + + x <.<.x x & & & x x x x & + . x x x x x x x x x x x S.D.OXSXo & x x Q T E N.rX$Xx @X@XjX!.9                 ",
"              X + & x <.<.x & & & x x <.<.x & & X & & & x <.hXhXhXzX&X{ +.wXSXCX9 & x 2.2.R | 4.{.5Xx @X@XjX}.u.X               ",
"              X X + & x x x & + + x x <.<.x & & + X . . . . . 7 . :X7Xb.b.SX# + & & x <.2.R 5.M.XX5Xx x -.B.JX@ X               ",
"          + X X X + + & x x & + + & x x <.x x & & + + + X X X X 6 X X # 9 9 + & & x x <.N X.D.I.dX0X{ $XOXwXSXX X X +           ",
"        + + + + X X + + & & & + X & & x x x x + + + + + + + + + + + + + + + + + & x x x N ` A.J.SXeX|.GXGX.Xr X + + + +         ",
"        + + & & + X X + & & & + X + & & x x & & & + + + + + + + + + + + + + + & - - n n J 6.L.SXSX`.^.=./ @ X + & & + +         ",
"      + + & x x x & + + + & & & X + & & & & & & + + + + + + + + + + + + $ % % + - > > e #.6.J.qX<X4 1 * k.j.j.n x x & + +       ",
"      + & x x x + + + + + + & + + X + & & & + + + + + + + + + + + + + + $ C V q y q b L.I.H.JXDXi.j.k.j.nXnXnXj.j.j.x & +       ",
"    + + & x & & a a a s s s + + + + + & & + & + + & & & & + + + + + + - - D S V 0.].%.%XM.5XJXg.j.j.nXnXJXJXSXnXnXj.j.& + +     ",
"    + + & + a a a a s s MXMX+ + + + + + + X + + & & & & & & & + + & & & & & b c C W.( '.>XSXy.l.nXnXJXJXJXJXJXJXJXnXnXj.+ +     ",
"    + + + a a a a a a s MXMXMX+ + + + + X X + & & & & & & & & + + & & & & & ; c ] XXv.d.5 5 j.j.nXJXJXJXJXJXJXJXJXJXnXj.j.+     ",
"    + a a a a a a a a s MXMXs s s X X X X X + & x x x x x & & & & & & x x x x H #.V.sXh X X j.nXJXJXJXJXGXKXJXGXJXJXJXnXj.+     ",
"    + a a a a i u . . . u a s s s a   X X X + & x <.<.<.x x x & & x x x <. .R A U ].8XX X X j.nXJXGXKXKXKXKXKXKXKXGXJXnXj.+     ",
"    + a a a a u . . . . . u a a s a   X X X + & x x <.<.<.<.x & - x <.<.<. .x Z n.9XSXX X j.nXJXJXJXKXKXKXKXKXKXKXJXJXJXnXj.    ",
"    + a a a a . . . . . . . a a a a     X X + & & x x <.<.<.x & - x <.<.^ x x S &.5XSXX   j.nXJXJXKXKXKXKXKXKXKXKXKXJXJXnXj.    ",
"    + a a a a . . . . . . . a a a a       X + & & & x x x x x x n n x x x x 4 U (.SX#     j.nXJXJXJXKXKXKXKXKXKXKXGXJXJXnXj.    ",
"    + a a a a . . . . . . . a a a a       X + + & & & & & & & - - & & ; > , r.(.SXSXX       j.nXJXJXKXKXKXKXKXKXKXJXJXnXj.+     ",
"    + a a i i u . . . . . u i i a a     X X X + + + & & & & & & & & > > Y r.V.uXJXr X X     j.nXJXJXJXJXGXKXJXJXJXJXJXnXj.+     ",
"    + + i i i i u . . . u i i i i u     X + X + & + + + + + + + + + % K K E.3XaXyXJXP.X     j.j.nXJXJXJXJXJXJXJXJXJXnXj.j.+     ",
"    + + u i i i i i i i i i i i u +     X + + & x & & & + + + + + + + + & ' ' G.+.SXXXr     + j.nXnXJXJXJXJXJXJXJXnXnXj.+ +     ",
"      + + u i i i i i i i i i i +       X X + x <.<.x & & & & & & & & & & x  .Y.$X=Xv.r       + j.j.nXnXJXJXJXnXnXj.j.+ +       ",
"        + u i i i i i i i i u +       X X + + & x x x x x & & & & & & x x x x >.=X;XSXX X       + j.j.j.nXnXnXj.j.j.u +         ",
"          + u u u u u u u u +       X X + + + + & & x x x x & + + & x x x x ; ' !.aXuXx.X X       + u u j.j.j.u u u +           ",
"            + + + + + + + +         X + + + & + + & & & & & & + + & & & & & B 0 0 B W.JX+ X         + + + + + + + +             ",
"                                    X X + + & & + + + + + + + + + + + + + + 9 9 B ; P.XXh X                                     ",
"                                    X X + + + & x x & + + & & + + & & + + & x x ; P o.P.SXX                                     ",
"                                    X X + + + & x <.<.x & & & + + & & & x <.<.x +.P o.P.h X                                     ",
"                                  X X + X + + & & x x x x x & + + & x x x x x & ' P +.v.yX*X#                                   ",
"                            X X X + & & & & + + + + & & & + & & & & + & & & + + 0 q @.Q.SX+XSXSXX X                             ",
"                            X + + & & x x & & & + + + + & & & & & & & & + + + + - ; b A A $.F.rX!.#                             ",
"                          X + + + & x x x x x & & & & & & & & & & & & & - = & & - x x x x A ) O.JXSX#                           ",
"                          X + + & & x <.<.<.x x x x x x x & & & & & & x x x x x x x <.<. .x < ) SXSX#                           ",
"                          X + + & & x x <.<.<.<.x x x x x x & & & & x x x x x x <.<.<.<.x x > } C.yXr                           ",
"                          X X + + & & x x x <.x x <.x x x x & & & & x x x x <.x x <.x x x & > V C.SX#                           ",
"                          X X + + & & & x x x x x x x x x x & & & & x x x x x x x x x x & ; > G %.v.X                           ",
"                            X X + + + & & & & x x x x x x x & & & & x x x x x x x & & & & $ = G 1Xr                             ",
"                              X X + + + & & & & & x x x x & & & & & & x x x x & & & & & + $ w 8.6                               ",
"                                X X + + + + + & & & & & & & & & & & & & & & & & & + + + + + 7.:                                 ",
"                                  X X + + + + + + + + & & & & & & & & & & + + + + + + + + X #                                   ",
"                                      X X X + + + + + + & & & & & & & & + + + + + + X X X                                       ",
"                                        X X X X X + + + + + + & & + + + + + + X X X X X                                         "
};
