/* XPM */
static char *_549d0e8ce5146fdd20797120ff71ed19Gxb6SgyX3fGld5K[] = {
/* columns rows colors chars-per-pixel */
"64 64 244 2 ",
"   c None",
".  c black",
"X  c #000101",
"o  c #000102",
"O  c #000202",
"+  c #010203",
"@  c #010303",
"#  c #020203",
"$  c #020303",
"%  c #010204",
"&  c #010304",
"*  c #020204",
"=  c #010404",
"-  c #010405",
";  c #020405",
":  c #020505",
">  c #030505",
",  c #020506",
"<  c #030506",
"1  c #040605",
"2  c #070506",
"3  c #040606",
"4  c #040607",
"5  c #050607",
"6  c #050707",
"7  c #060606",
"8  c #060706",
"9  c #070706",
"0  c #060607",
"q  c #080806",
"w  c #0B0A06",
"e  c #060708",
"r  c #090809",
"t  c #0A0909",
"y  c #0B090A",
"u  c #0D0A0B",
"i  c #0D0B0B",
"p  c #0E0B0B",
"a  c #0C0B0C",
"s  c #0D0C0C",
"d  c #0F0C0C",
"f  c #0F0D0E",
"g  c #120B05",
"h  c #110D07",
"j  c #110D0D",
"k  c #120D0D",
"l  c #100E0E",
"z  c #130E0E",
"x  c #130F0F",
"c  c #140D0D",
"v  c #150F0E",
"b  c #150F0F",
"n  c #160F0F",
"m  c #181107",
"M  c #181108",
"N  c #191108",
"B  c #1A1208",
"V  c #1B1308",
"C  c #1C1309",
"Z  c #161010",
"A  c #181010",
"S  c #181111",
"D  c #181213",
"F  c #1B1212",
"G  c #1C1212",
"H  c #1E1413",
"J  c #191314",
"K  c #1A1414",
"L  c #1B1515",
"P  c #1F1414",
"I  c #231609",
"U  c #25180A",
"Y  c #2B1B09",
"T  c #2A1A0A",
"R  c #2E1C0A",
"E  c #211515",
"W  c #211615",
"Q  c #221615",
"!  c #221616",
"~  c #231817",
"^  c #241817",
"/  c #271817",
"(  c #251919",
")  c #271918",
"_  c #271C1C",
"`  c #2B1B1A",
"'  c #2C1B1A",
"]  c #2D1C1B",
"[  c #2E1C1B",
"{  c #2E1D1B",
"}  c #281D1D",
"|  c #2F1D1C",
" . c #2D1F1F",
".. c #301D1C",
"X. c #3C250D",
"o. c #3F260C",
"O. c #34201E",
"+. c #35201E",
"@. c #37211F",
"#. c #372726",
"$. c #3B2321",
"%. c #3F2623",
"&. c #3C2624",
"*. c #382827",
"=. c #3A2826",
"-. c #44290E",
";. c #4A2D0E",
":. c #53310E",
">. c #54310E",
",. c #56320E",
"<. c #57330E",
"1. c #5A340F",
"2. c #5D360F",
"3. c #553310",
"4. c #643A10",
"5. c #663B10",
"6. c #653C12",
"7. c #693D10",
"8. c #683E13",
"9. c #412624",
"0. c #452926",
"q. c #452927",
"w. c #462A27",
"e. c #412D2B",
"r. c #442E2D",
"t. c #452F2E",
"y. c #4A2C29",
"u. c #4B2C29",
"i. c #4C2C2A",
"p. c #4C2D2A",
"a. c #4D2D2A",
"s. c #4F2E2B",
"d. c #502F2C",
"f. c #512F2C",
"g. c #53312D",
"h. c #55312E",
"j. c #55322E",
"k. c #56322E",
"l. c #56322F",
"z. c #4D3533",
"x. c #4F3634",
"c. c #573431",
"v. c #583330",
"b. c #5A3430",
"n. c #5B3531",
"m. c #583532",
"M. c #5C3531",
"N. c #5C3632",
"B. c #5D3632",
"V. c #5E3632",
"C. c #5F3733",
"Z. c #5F3A36",
"A. c #583B39",
"S. c #593C3A",
"D. c #603733",
"F. c #603734",
"G. c #603834",
"H. c #613834",
"J. c #613935",
"K. c #623935",
"L. c #623A36",
"P. c #633A36",
"I. c #633B37",
"U. c #643B37",
"Y. c #623D3A",
"T. c #653C38",
"R. c #653D39",
"E. c #663E3A",
"W. c #673E3B",
"Q. c #673F3B",
"!. c #673F3C",
"~. c #6E4011",
"^. c #714213",
"/. c #754312",
"(. c #704214",
"). c #724314",
"_. c #744414",
"`. c #784715",
"'. c #7A4715",
"]. c #7E4813",
"[. c #7B4815",
"{. c #7F4A16",
"}. c #60403D",
"|. c #60413E",
" X c #67403C",
".X c #68403C",
"XX c #69413D",
"oX c #69413E",
"OX c #69433F",
"+X c #6A423F",
"@X c #6B433F",
"#X c #624341",
"$X c #664543",
"%X c #6B4340",
"&X c #6B4440",
"*X c #6B4441",
"=X c #6C4441",
"-X c #6E4744",
";X c #6D4845",
":X c #6F4945",
">X c #714A47",
",X c #714B47",
"<X c #704B48",
"1X c #714B48",
"2X c #724B48",
"3X c #704C49",
"4X c #724C48",
"5X c #724C49",
"6X c #724D4A",
"7X c #734D4A",
"8X c #744D4A",
"9X c #744E4B",
"0X c #754E4B",
"qX c #744F4C",
"wX c #754F4C",
"eX c #804B16",
"rX c #824C16",
"tX c #844D16",
"yX c #874F16",
"uX c #8C5117",
"iX c #905317",
"pX c #945517",
"aX c #995715",
"sX c #9A5816",
"dX c #9B5917",
"fX c #9D5916",
"gX c #9D5A17",
"hX c #A15C16",
"jX c #A75F17",
"kX c #AC6117",
"lX c #AC6118",
"zX c #AC6218",
"xX c #AF6318",
"cX c #B06418",
"vX c #B36518",
"bX c #B46618",
"nX c #B66719",
"mX c #B76719",
"MX c #B86819",
"NX c #B96819",
"BX c #B96919",
"VX c #BA6919",
"CX c gray51",
"ZX c gray98",
/* pixels */
"                                    % - - - - - - - - - - - -                                                                   ",
"                                D.D.D.D.% s.D.H.D.D.D.D./ - D.z - -                                                             ",
"                          - - F Z.5X+XH.- p.C.H.H.Q.9XH.` - V.V.n.n.- % -                                                       ",
"                    % % 0 s.}.z.z wX+XH.- s.H.5XH.!.wXH.^ 0 D.D.l.z s.d.g.% % %                                                 ",
"                  % - =.x.H.Q.Z.9.} ) E % F E ) E ^ ) E i - E E ^ 9.V.Q.-X9.c - $                                               ",
"                c ] ] =.e.H.H.l...@ % % % @ @ @ @ @ @ @ @ @ @ @ t +.D.Y.&XO...] #.0                                             ",
"              F &.Q.D.[ H w.w.+.@ @ @ @ @ @ @ @ @ @ @ @ @ @ @ @ @ @ w.w.w.F p.H.;X^ b                 [.tXiXiXiXiXeX            ",
"            i g.Y.5Xl.l.s.- % @ @ @ @ @ @ @ @ @ @ @ @ @ @ @ @ @ @ @ - % $ l.l.l.H.l.w.z       h 6.eXyXeXiXVXVXVXVXeXeX).        ",
"        0 Z H.e ' V.@ @ @ @ @ @ @ @ @ @ @ @ @ @ @ @ @ @ @ @ @ @ @ @ @ @ @ @ @ > V.t J 5X0 8 8 eXeXuXVXeXiXVXVXVXVX{.eXeXyXeX,.  ",
"      - $X,XH.H.+.- @ @ @ @ @ @ @ @ @ @ @ @ @ @ @ @ @ @ @ @ @ @ @ @ @ @ @ @ @ @ % % - - {.{.eXeXzXVXVXyXiXVXVXVXVX{.cXVXVXeXeXeX",
"  - - H.i - - - % @ @ @ @ @ @ @ @ @ @ @ @ @ @ @ @ @ @ @ @ @ @ @ @ @ @ @ @ @ @ @ @ - C eXVXVXVXeXzXVXVXeXiXVXVXVXVX{.xXVXVXeXeXeX",
"  $ 0 H.H.H.H.- @ @ @ @ @ @ @ @ @ @ @ @ @ @ @ @ @ @ @ @ @ @ @ @ @ @ @ @ @ @ @ @ @ - C eXVXVXVXeXzXVXVXyXiXVXVXVXVX{.cXVXVXeXeXeX",
"  $ 0 H.5X>XH.0 @ @ @ @ @ @ @ @ @ @ @ @ @ @ @ @ @ @ @ @ @ @ @ @ @ @ @ @ @ @ @ @ @ @ C eXVXVXVXeXzXVXVXtXiXVXVXVXVXeXcXVXVXeXeXeX",
"  $ - t c.U.H.- @ @ @ @ @ @ @ @ @ @ @ @ @ @ @ @ @ @ @ @ @ @ @ @ @ @ @ @ @ @ @ @ @ @ C eXVXVXVXeXzXVXVXtXiXVXVXVXVXeXcXVXVXtXeXeX",
"  $ 0 p.H c c @ @ @ @ @ @ @ @ @ @ @ @ @ @ @ @ @ @ @ @ @ @ @ @ @ @ @ @ @ @ @ @ @ @ @ m eXVXVXVXeXzXVXVXtXiXVXVXVXVXeXcXVXVXeXeXeX",
"  - - H.9.$.$.@ @ @ @ @ @ @ @ @ @ @ @ @ @ @ @ @ @ @ @ @ @ @ @ @ @ @ @ @ @ @ @ @ @ @ C eXVXVXVX{.zXVXVXtXiXVXVXVXVXeXcXVXVXtXeXeX",
"  $ 0 H. X XH.- @ @ @ @ @ @ @ @ @ @ @ @ @ @ @ @ @ @ @ @ @ @ @ @ @ @ @ @ @ @ @ @ @ - C eXVXVXVXeXzXVXVXtXiXVXVXVXVXeXcXVXVXtX{.{.",
"  $ - s.S.S.s.- @ @ @ @ @ @ @ @ @ @ @ @ @ @ @ @ @ @ @ @ @ @ @ @ @ @ @ @ @ @ @ @ @ $ C eXVXVXVXeXzXVXVXtXiXVXVXVXVXeXcXVXVXtX{.{.",
"  $ - s t t t - @ @ @ @ @ @ @ @ @ @ @ @ @ @ @ @ @ @ @ @ @ @ @ @ @ @ @ @ @ @ @ @ @ @ m _.VXVXVXeXzXVXVXtXiXVXVXVXVXeXcXVXBXtXtX{.",
"  $ 8 wXQ.H.H.- @ @ @ @ @ @ @ @ @ @ @ @ @ @ @ @ @ @ @ @ @ @ @ @ @ @ @ @ @ @ @ @ @ @ - - bXnXVXeXzXVXVXtXiXVXVXVXVX{.cXVXVXtX{.{.",
"  $ e H.>X>XH.- @ @ @ @ @ @ @ @ @ @ @ @ @ @ @ @ @ @ @ @ @ @ @ @ @ @ @ @ @ @ @ @ @ @ @ % - 1.VXeXzXVXVXtXuXVXVXVXBX{.cXBXVX{.{.{.",
"  $ e H.H.H.H.0 @ @ @ @ @ @ @ @ @ @ @ @ @ @ @ @ @ @ @ @ @ @ @ @ @ @ @ @ @ @ @ @ @ @ - - - - - {.zXVXVXtXiXVXVXVXBXtXcXBXVXtXtX{.",
"  $ - H.s - - - @ @ @ @ @ @ @ @ @ @ @ @ @ @ @ @ @ @ @ @ @ @ @ @ @ @ @ @ @ @ @ @ @ $ - - mXVXVXeXzXVXVXtXiXVXVXVXBX{.cXBXBX{.{.{.",
"  $ - 0 #X;XV.- @ @ @ @ @ @ @ @ @ @ @ @ @ @ @ @ @ @ @ @ @ @ @ @ @ @ @ @ @ @ @ @ @ - B [.VXVXVXeXzXVXVXtXiXVXVXVXBX{.bXBXBXyX{.{.",
"  $ 0 l.U. X5X0 @ @ @ @ @ @ @ @ @ @ @ @ @ @ @ @ @ @ @ @ @ @ @ @ @ @ @ @ @ @ @ @ @ @ m eXVXVXVXeXzXVXVXtXiXVXVXVXBX{.cXBXBXtX{.{.",
"  $ - C.H.H.Q.- @ @ @ @ @ @ @ @ @ @ @ @ @ @ @ @ @ @ @ @ @ @ @ @ @ @ @ @ @ @ @ @ @ @ C eXVXVXVXeXzXVXVXtXiXVXVXVXBXtXcXBXBXtX{.{.",
"  $ - ..[ +.H.- @ @ @ @ @ @ @ @ @ @ @ @ @ @ @ @ @ @ @ @ @ @ @ @ @ @ @ @ @ @ @ @ @ @ C eXVXVXVXeXzXVXVXtXiXVXVXVXBX{.bXBXBX{.tX{.",
"  $ - ~ }  .9.- @ @ @ @ @ @ @ @ @ @ @ @ @ @ @ @ @ @ @ @ @ @ @ @ @ @ @ @ @ @ @ @ @ $ C eXVXVXVX{.zXVXVXtXiXVXVXVXBX{.cXBXBXyX{.{.",
"  $ - H.;X|.z - @ @ @ @ @ @ @ @ @ @ @ @ @ @ @ @ @ @ @ @ @ @ @ @ @ @ @ @ @ @ @ @ @ @ m eXBXBXBX{.zXVXVXtXiXVXVXVXBX{.cXBXBXtX{.{.",
"  $ 0 H.H.H.H.- @ @ @ @ @ @ @ @ @ @ @ @ @ @ @ @ @ @ @ @ @ @ @ @ @ @ @ @ @ @ @ @ @ $ C eXBXBXBX{.zXVXVXtXiXVXVXVXBX{.cXBXBXyX{.{.",
"  $ 0 C.H.H.H.0 @ @ @ @ @ @ @ @ @ @ @ @ @ @ @ @ @ @ @ @ @ @ @ @ @ @ @ @ @ @ @ @ @ $ V tXBXBXBXtXzXVXVXtXiXVXBXBXBXtXcXBXBXyX{.{.",
"  $ - - - z H.- @ @ @ @ @ @ @ @ @ @ @ @ @ @ @ @ @ @ @ @ @ @ @ @ @ @ @ @ @ @ @ @ $ : V tXBXVXBX{.zXVXVXtXpXBXBXBXBX{.cXBXBX{.{.yX",
"  @ 0 D.H.d.- - @ @ @ @ @ @ @ @ @ @ @ @ @ @ @ @ @ @ @ @ @ @ @ @ @ @ @ @ @ @ @ @ @ @ m eXVXVXVXeXkXVXVXtXiXVXVXVXVXeXxXVXVXeXeXeX",
"  @ 0 D.H.H.F.0 @ @ @ @ @ @ @ @ @ @ @ @ @ @ @ @ @ @ @ @ @ @ @ @ @ @ @ @ @ @ @ @ @ @ C eXVXVXVXeXkXVXVXtXiXVXVX>.- - sXVXVXeXeXeX",
"  @ 0 Z.H.H.H.- @ @ @ @ @ @ @ @ @ @ @ @ @ @ @ @ @ @ @ @ @ @ @ @ @ @ @ @ @ @ @ @ @ @ C eXVXVXVXeXzXVXVXtXiXVXVXcXkX- w I VXeXeXeX",
"  @ - z s z z - @ @ @ @ @ @ @ @ @ @ @ @ @ @ @ @ @ @ @ @ @ @ @ @ @ @ @ @ @ @ @ @ @ @ C eXVXVXVX{.zXVXVXtXiXVXVXVXVX- ].fXVXtXeXeX",
"  $ 0 9.9.9.9.- @ @ @ @ @ @ @ @ @ @ @ @ @ @ @ @ @ @ @ @ @ @ @ @ @ @ @ @ @ @ @ @ @ @ m eXVXVXVXeXzXVXVXtXiXVXVX/.o.- sXVXVXeXeXeX",
"  @ 0 D.H.H.H.- @ @ @ @ @ @ @ @ @ @ @ @ @ @ @ @ @ @ @ @ @ @ @ @ @ @ @ @ @ @ @ @ @ $ C eXVXVXVXeXzXVXVXtXiXVX4.2.>.X.2.~.VXtXeXeX",
"  $ - !.H.C.H.% @ @ @ @ @ @ @ @ @ @ @ @ @ @ @ @ @ @ @ @ @ @ @ @ @ @ @ @ @ @ @ @ @ @ C eXnXVXVXeXzXVXVXtXiXVX- 7.VXeXB m VXeXeXeX",
"  $ e wXn.l.l.@ @ @ @ @ @ @ @ @ @ @ @ @ @ @ @ @ @ @ @ @ @ @ @ @ @ @ @ @ @ @ @ @ @ - C eXVXVXVXeXzXVXVXtXiXVXB 5.hX^.Y R VXtXeXeX",
"  $ e 5XZ e - - @ @ @ @ @ @ @ @ @ @ @ @ @ @ @ @ @ @ @ @ @ @ @ @ @ @ @ @ @ @ @ @ @ @ m [.VXVXVX{.zXVXVXtXuXVXVX,.w 0 sXVXVXeXeXeX",
"  $ - - g.H.H.- @ @ @ @ @ @ @ @ @ @ @ @ @ @ @ @ @ @ @ @ @ @ @ @ @ @ @ @ @ @ @ @ @ @ - % VXVXVX{.zXVXVXtXpXVXVXVXVX{.xXVXVXeXeXeX",
"  $ 0 H.H.H.H.e @ @ @ @ @ @ @ @ @ @ @ @ @ @ @ @ @ @ @ @ @ @ @ @ @ @ @ @ @ @ @ @ @ - - - - 1.VXeXzXVXVXtXuXVXVXVXVXeXbXVXVXeXeXeX",
"  $ - H.H.Q.wX- @ @ @ @ @ @ @ @ @ @ @ @ @ @ @ @ @ @ @ @ @ @ @ @ @ @ @ @ @ @ @ @ @ $ - - - - - eXzXVXVXtXpXVXVXVXnXeXxXVXVXeXeXeX",
"  % - - - Z wX- @ @ @ @ @ @ @ @ @ @ @ @ @ @ @ @ @ @ @ @ @ @ @ @ @ @ @ @ @ @ @ @ @ @ - - mXmXnXeXzXVXVXtXpXVXVXVXVX{.xXVXVXeXeXeX",
"  % e c.n.p.s - @ @ @ @ @ @ @ @ @ @ @ @ @ @ @ @ @ @ @ @ @ @ @ @ @ @ @ @ @ @ @ @ @ @ B /.nXVXVXeXzXVXVXtXuXVXVXVXBX{.bXVXVXyXeXeX",
"  $ 4 H.H.C.s.- @ @ @ @ @ @ @ @ @ @ @ @ @ @ @ @ @ @ @ @ @ @ @ @ @ @ @ @ @ @ @ @ @ @ m eXVXVXVXeXzXVXVXtXpXVXVXVXBX{.xXVXVXtXeXeX",
"  $ 4 H.&X&XH.- @ @ @ @ @ @ @ @ @ @ @ @ @ @ @ @ @ @ @ @ @ @ @ @ @ @ @ @ @ @ @ @ @ @ C eXVXVXVX{.zXVXVXtXuXVXVXVXVX{.bXVXVXeXeXeX",
"  $ 0 $.t.t.$.- @ @ @ @ @ @ @ @ @ @ @ @ @ @ $ @ @ @ @ @ @ @ @ @ @ @ @ @ @ @ @ @ @ - C eXVXVXVXeXzXVXVXtXpXVXVXVXVX{.cXVXVXtX{.{.",
"  $ - c c Z Z - @ @ @ @ @ @ c c b b c b c F L L L L K c t - @ z c c c b G c > @ @ - C eXVXVXVXeXzXVXVXtXuXVXVXVXVX{.cXVXVXtX{.{.",
"  $ e H.H.H.H.- @ % - - - t b.D.H.H.H.U.H.5XqX5X9X9X9XU.[ t t p.n.v.D.+XwXF.P % w % C eXVXVXVXeXzXVXVXtXpXVXVXVXVX{.cXVXBXtX{.tX",
"  - - C.H.H.H.0 % 0 - 0 t V.D.D.C.C.&X5X5XqX,XC.D..X9X9X+XH.V.z 0 - V.+X5XH.P e H.t C eXnXVXVXeXzXVXVXtXuXVXVXVXBX{.cXVXBXtX{.{.",
"  $ - - l.Z.H.- ` H.H.H.n.- - - - - - - - - - - V.H.H.wXwX9XH.H.H.H.- - - H.P e wXs C eXVXVXVXeXzXVXVXtXuXVXVXVXBX{.cXBXVX{.{.{.",
"  $ 8 wXs % - - ` H.wXQ.H.wXU.H.H.H.H.H.H.H.H.H.0 $ - - - - - - - - - ` H.- - e H.t C eXVXVXVXeXzXVXVXtXpXVXVXVXBX{.cXBXVXtXtX{.",
"  $ 0 H.H.D.H.- ` H.H.H.H.H.H.Q.wXH.-XwXH.H.H.H.H.H.H.H.H.Z.H.C.H.H.H.$.- - - - - - C eXVXVXVXeXzXVXVXtXuXVXVXVXBX{.bXBXBX{.{.{.",
"  $ 8 wXQ.V.H.0 - 0 0 0 0 - 0 0 e - 0 e - 0 0 0 0 - e 0 0 0 0 0 0 0 0 - - - - - - - C eXeXfXVXeXzXVXVXtXpXVXVXVXBX{.bXBXBXyX{.{.",
"  @ - z i i a - - - - - - - - - - - - - - - - - - - - - - - - - - - - - - - - - - - 0 h h ;.yXeXxXVXVXeXuXVXVXVXBXyXcXBXBXtX{.{.",
"                                                                                          g U eXuXpXVXyXiXVXVXVXBX{.cXBXBXtX{.{.",
"                                                                                              X.X.-.dXeXiXVXVXVXBX{.bXBXBXyX{.{.",
"                                                                                              @ - 8 3.,.).VXVXVXBX{.cXBXBX{.{.yX",
"                                                                                                - - @ % Y sXsXlXcX{.cXBXBXyX{.{.",
"                                                                                                          - - -.`.`.zXnXnX{.{.{.",
"                                                                                        ZXCX                  - : : ~.[.{.{.{.{.",
"                                                                                                                    $ : : : 1 1 "
};
