/* XPM */
static char *_d033b5aa6994f5cd77fd63114f7e384A6pqHjyV7xnIpLuG[] = {
/* columns rows colors chars-per-pixel */
"64 64 215 2 ",
"   c None",
".  c #030202",
"X  c #040303",
"o  c #050303",
"O  c #060403",
"+  c #070503",
"@  c #050404",
"#  c #070404",
"$  c #070505",
"%  c #080503",
"&  c #080505",
"*  c #090505",
"=  c #0A0505",
"-  c #090605",
";  c #0A0605",
":  c #0B0605",
">  c #0A0606",
",  c #0B0706",
"<  c #0A0707",
"1  c #0B0707",
"2  c #0C0704",
"3  c #0C0706",
"4  c #0C0707",
"5  c #0D0707",
"6  c #0E0807",
"7  c #0E0909",
"8  c #0E0A0A",
"9  c #130B05",
"0  c #170E07",
"q  c #190F06",
"w  c #100908",
"e  c #110908",
"r  c #130909",
"t  c #120A08",
"y  c #130A08",
"u  c #140B0A",
"i  c #160B0A",
"p  c #170C0A",
"a  c #130C0C",
"s  c #170E0E",
"d  c #170F0F",
"f  c #180D0B",
"g  c #1B0E0C",
"h  c #180F0E",
"j  c #1B1006",
"k  c #1D1107",
"l  c #1E1207",
"z  c #1E100D",
"x  c #1F100D",
"c  c #1B1111",
"v  c #20100D",
"b  c #22130C",
"n  c #20110E",
"m  c #21110E",
"M  c #26130F",
"N  c #2E1B0B",
"B  c #2E1A0E",
"V  c #271410",
"C  c #261711",
"Z  c #251513",
"A  c #211514",
"S  c #231616",
"D  c #241717",
"F  c #2A1511",
"G  c #2B1611",
"H  c #2C1611",
"J  c #2D1712",
"K  c #2E1712",
"L  c #2E1713",
"P  c #2C1916",
"I  c #281918",
"U  c #291919",
"Y  c #2A1A19",
"T  c #2C1B1A",
"R  c #301813",
"E  c #321914",
"W  c #341A14",
"Q  c #361B15",
"!  c #371B15",
"~  c #381C16",
"^  c #3A1D16",
"/  c #3B1D17",
"(  c #3C1E17",
")  c #3D1E17",
"_  c #311B18",
"`  c #311E1D",
"'  c #3E1F18",
"]  c #3F1F18",
"[  c #36200B",
"{  c #38210C",
"}  c #3A220D",
"|  c #3A230D",
" . c #3C240D",
".. c #3E250C",
"X. c #3B211E",
"o. c #362221",
"O. c #372222",
"+. c #372525",
"@. c #3E2624",
"#. c #472A0D",
"$. c #472A0E",
"%. c #482B0E",
"&. c #4E2E10",
"*. c #422119",
"=. c #40201A",
"-. c #43211A",
";. c #44221A",
":. c #45221A",
">. c #46231B",
",. c #47231B",
"<. c #43231D",
"1. c #48241C",
"2. c #49241D",
"3. c #49251D",
"4. c #4A251D",
"5. c #4C271F",
"6. c #513010",
"7. c #533110",
"8. c #543110",
"9. c #5E3811",
"0. c #5F3812",
"q. c #603912",
"w. c #613A12",
"e. c #6B3F13",
"r. c #6B3F14",
"t. c #452927",
"y. c #492822",
"u. c #4D2820",
"i. c #4C2821",
"p. c #4F2923",
"a. c #4C2A25",
"s. c #442A2A",
"d. c #472C2C",
"f. c #4C2E2E",
"g. c #4D2F2E",
"h. c #502A23",
"j. c #512A23",
"k. c #512A24",
"l. c #522B25",
"z. c #552D27",
"x. c #552F2A",
"c. c #58302A",
"v. c #5A312C",
"b. c #5B322D",
"n. c #503231",
"m. c #523333",
"M. c #5E3530",
"N. c #5F3530",
"B. c #583737",
"V. c #5E3734",
"C. c #5E3A3A",
"Z. c #593C3C",
"A. c #673B37",
"S. c #633E3E",
"D. c #6A3E3A",
"F. c #683F3E",
"G. c #6E4114",
"H. c #6F4214",
"J. c #714315",
"K. c #724315",
"L. c #734416",
"P. c #754515",
"I. c #744516",
"U. c #774616",
"Y. c #774716",
"T. c #784716",
"R. c #794716",
"E. c #7C4917",
"W. c #6F423F",
"Q. c #664040",
"!. c #6A4242",
"~. c #6C4343",
"^. c #764745",
"/. c #754746",
"(. c #744848",
"). c #764A4A",
"_. c #794A48",
"`. c #7D4D4B",
"'. c #7D4D4C",
"]. c #7F4F4F",
"[. c #804C17",
"{. c #844E18",
"}. c #864F18",
"|. c #875019",
" X c #885019",
".X c #8E541A",
"XX c #8F541A",
"oX c #8F551A",
"OX c #93571B",
"+X c #94571B",
"@X c #985A1C",
"#X c #9A5B1C",
"$X c #9B5C1C",
"%X c #9D5D1D",
"&X c #9F5E1D",
"*X c #A05E1D",
"=X c #A8631F",
"-X c #A9641F",
";X c #AA651F",
":X c #AB651F",
">X c #AC661F",
",X c #AF6820",
"<X c #B06820",
"1X c #B26920",
"2X c #B46B21",
"3X c #B56B21",
"4X c #814F4F",
"5X c #805050",
"6X c #835150",
"7X c #835252",
"8X c #845151",
"9X c #855252",
"0X c #855352",
"qX c #865454",
"wX c #875454",
/* pixels */
"                                                                                                                                ",
"                                                                                                                                ",
"                                                                                                                                ",
"                                                    o # o o o o o o o o o o o o o                                               ",
"                                                    v g & f v x x x x x x v & & v u                                             ",
"                                            & e c c :./ # Q 1.:.,.1.2.l.2.:.# 6 ,.K e e e                                       ",
"                                      & 3 3 F :.wXwX:.) & R 1.2.1.1.b.wXl.,.# 1 ,.,.,.:.:.& & 3                                 ",
"                                & & & ,.u.wXs.& ].wX,.) & Q 1.qXqX,.b.qXl.,.& 1 ,.,.,.3 & 2.,.,.x & & &                         ",
"                            & & & (.wX,.,.,.2.:.& & & & & & & & % # # # = # # & & & & <.2.,.h.wXA.1.& & & #                     ",
"                        & & :.:.:.u 8 :.,.,.V & & & r.r.r.r.e.e.G.e.r.G.r.w.r.r.r. .& & & ,.,.2.g & :.:.wXS.&                   ",
"                    o # Y T `.D.2.] ] e e e | q.q.q.;X*XG.@X;X;X,X,X,X,X,X,XJ.J.,X}.q.0.q.e 8 6 H ) :.,.p.i.] 9 #               ",
"                  o M R h h n.@.v v g %.%.%.P.$X$X$X3X-XG.&X3X3X,X1X1X,X3X3XG.J.<X,X$X@X@X%.%.&.B b x v :.) g d.B.o o           ",
"                8 O.<.,.g v A C N N N  X}.G.+X3X3X3X3X-XG.&X3X3X1X3X3X3X3X3XG.J.3X3X3X3X3Xr.J. X%.N N N R F v A.W.v x           ",
"              8 D (.a.] =.) q | R.R.R.3X<XG.+X3X3X3X3X-XG.&X3X3X3X3X3X3X3X3XG.J.3X3X3X3X3XG.T.3XOXR.R.R.q b ) X.) X.) e &       ",
"          & & ` Y & & 3 & 3 G.}.3X3X3X3X<XG.+X3X3X3X3X-XG.&X3X3X3X3X3X3X3X3XG.J.3X3X3X3X3XG.R.3X3X3X3X3XG.8.& & 2 & 6 :.K &     ",
"          & & ,.,.,.,.,.& & G. X3X3X3X3X<XG.+X3X3X3X3X-XG.&X3X3X3X3X3X3X3X3XG.J.3X3X3X3X3XG.P.3X3X3X3X3XG.8.& ) ,.,.:.1.K &     ",
"          & & :.z.wXc.,.& & G. X3X3X3X3X<XG.+X3X3X3X3X-XG.&X3X3X3X3X3X3X3X3XJ.K.3X3X3X3X2XG.R.2X3X3X3X3XG.8.& / :.1.2.wXn.&     ",
"          & & & f 2.:.,.& 3 G. X3X3X3X3X<XG.+X3X3X3X3X-XG.&X3X3X3X3X3X3X3X3Xe.K.3X3X3X3X2XG.R.2X3X3X3X3XG.8.& !.qX:.2.2.P &     ",
"          & & =.Q e e e & 3 G. X3X3X3X3X<XG.+X3X3X3X3X-XG.&X3X3X3X3X3X3X3X3Xe.K.3X3X3X3X2XG.R.2X3X3X3X3XG.8.& d c 9 e e 9 &     ",
"          & & 1.=.R R R & & G. X3X3X3X3X<XG.+X3X3X3X3X-XG.&X3X3X3X3X3X3X3X3XJ.K.3X3X2X2X2XG.R.2X3X3X3X3XG.8.& M R R K R g &     ",
"          & & ,.u.N.u.:.% 3 G. X3X3X3X3X<XG.+X3X3X3X3X-XG.&X3X3X3X3X3X3X3X3XJ.K.3X3X3X3X2XJ.R.2X3X3X3X3XG.7.& / ,.,.,.,.P =     ",
"          & & ] i.(.a.] & & G. X3X3X3X3X<XG.+X3X3X3X3X-XG.&X3X3X3X3X3X3X3X3Xe.K.3X3X3X3X2XG.P.2X3X3X3X3XG.8.& / ,.,.,.=.V =     ",
"          & & 3 3 & 3 & & & G. X3X3X3X3X<XG.+X3X3X3X3X-XG.&X3X3X3X3X3X3X3X3XJ.J.3X3X3X3X2XG.R.2X3X3X3X3Xe.6.# ! :.:.=.& & &     ",
"          & & wX_.,.,.,.& 3 G. X3X3X3X3X<XG.+X3X3X3X3X-XG.&X3X3X3X3X3X3X3X3Xe.P.3X3X3X3X2XG.Y.2X3X3X3X3X. o & & & & 8 Z.+.&     ",
"          & & :.x.wXc.,.& 3 G. X3X3X3X3X<XG.+X3X3X3X3X;XG.&X3X3X3X3X3X3X3X3XJ.J.3X3X3X3X3XG.0.. . . . . . X # / ,.,.2.wXn.&     ",
"          & & 1.,.2.,.,.& & G. X3X3X3X3X<XG.+X3X3X3X3X-XG.&X3X3X3X3X3X3X3X3Xe.J.3X3X3X3X3XG.0.. . . . . . X # / :.wX6X2.R &     ",
"          & # 1./ w 9 w # & J. X3X3X3X3X<XG.+X3X3X3X3X-XG.&X3X3X3X3X3X3X3X3XJ.J.3X3X3X3X3XG.P.&X#X#X#X#X. X & 9 9 l.h.,.K &     ",
"          & & v P B.B.B.= 3 e. X3X3X3X3X<XG.+X3X3X3X3X-XG.&X3X3X3X3X3X3X3X3Xe.K.3X3X3X3X3XG.P.2X2X2X2X2X$.[ # M R g v v u &     ",
"          & & v _ /.4XwX= & e. X3X3X3X3X<XG.+X3X3X3X3X-XG.*X3X3X3X3X3X3X3X3XJ.K.3X3X3X3X2XG.R.2X2X2X3X3XG.8.& / :.x x v u &     ",
"          & & :.:.-.W.`.& & J. X3X3X3X3X<XG.+X3X3X3X3X-XG.&X3X3X3X3X3X3X3X3Xe.K.3X3X3X3X2XG.R.2X2X2X3X3XG.8.& / 1.2.:.,.K &     ",
"          & & :.-.:.,.,.& & J. X3X3X3X3X<XG.+X3X3X3X3X-XG.&X3X3X3X3X3X3X3X3XJ.K.3X3X3X3X2XJ.R.2X3X3X3X3XG.8.+ / ,.,.,.,.K &     ",
"          & & & % = ! ,.& 3 e. X3X3X3X3X<XG.+X3X3X3X3X-XG.&X3X3X3X3X3X3X3X3Xe.K.3X3X3X3X3XG.R.3X3X3X3X3XG.8.& / ,.,.:.2.K &     ",
"          & & ,.z.wXY & % 3 G. X3X3X3X3X<XG.+X2X3X3X1X*XG.&X3X3X3X3X3X3X3X3XJ.K.3X3X3X3X3XJ.R.2X2X3X3X3XG.8.& / 2.# & & & &     ",
"          & & ,.,.2.:.:.& & G. X3X3X3X+ % + % % ,X3X3X,XG.&X3X3X3X3X3X3X3X3Xe.K.3X3X3X3X3XG.R.2X2X2X3X3XG.8.& & & :.:.:.K %     ",
"          & & ,.,.,.,.,.& & G. X3X3X3X#XXX. 7.#X1X3X1X,XG.&X3X3X3X3X3X3X3X3XJ.K.3X3X3X3X3XG.R.2X3X3X3X3XG.8.& R X.,.4.`.g.&     ",
"          & & x g v ) ,.& 3 G. X3X3X3X3X-X. q.3X3X3X1X,XG.&X3X3X3X3X3X3X3X3Xe.K.3X3X3X3X3XG.P.2X3X3X3X3XG.8.& / ,.,.1.N.X.&     ",
"          & & x v v K R & 3 G. X3X3X3XJ.e.. ..L.1X3X3X,XG.&X3X3X3X3X3X3X3X3XJ.K.3X3X3X3X2XG.R.2X3X3X3X3XJ.8.# V R R R P v &     ",
"          & & ,.,.,.g 9 & % G. X3X&X#Xl x 9 q l OX@X,X,XG.*X3X3X3X3X3X3X3X3Xe.K.3X3X3X3X2XG.R.2X3X3X3X3XG.8.# 9 e e e 9 6 &     ",
"          & & ,.,.,.2.,.& 3 G. X3Xl . 3X<XG.+X3X& . 1X,XG.*X3X3X3X3X3X3X3X3XJ.K.3X3X3X2X2XG.R.2X3X3X3X3XG.8.& / ,.,.:.1.K &     ",
"          & & ,.,.,.,.,.& & G. X3Xq . 3X<XG.+X3X& . ,X,XG.*X3X3X3X3X3X3X3X3Xe.K.3X3X3X2X2XG.R.2X3X3X3X3XG.8.& / ,.,.2.:.K &     ",
"          & & & & & & & & & G. X3X3X3Xo . o . . ,X1X3X,Xr.@X3X3X3X3X3X3X3X3XJ.K.3X3X3X3X3XG.R.2X3X3X3X3XG.8.# ~.wX,.:.& & &     ",
"          & & :.:.:.:.:.& 3 G. X3X3X3X>X;Xe.XX<X3X3X3X,Xr.$X3X3X3X3X3X3X3X3Xe.K.3X3X3X3X3XG.P.2X3X3X3X3XG.8.& 6 3 & 3 :.K &     ",
"          & & ,.,.,.,.,.& 3 G. X3X3X3X3X<XG.+X3X3X3X<X,XJ.*X3X3X3X3X3X3X3X3XJ.K.3X3X3X3X2XJ.R.3X3X3X3X3XG.8.& R ] ) ] :.K &     ",
"          & % ~.A.,.,.:.& & G. X3X3X3X3X<XG.+X3X3X3X<X*Xr.*X3X3X3X3X3X3X3X3Xe.K.3X3X3X3X2XG.P.3X3X3X3X3XG.8.& ! 2.,.2.W.t.&     ",
"          & & wX/.R R R & & G. X3X3X3X3X<XG.+X3X3X3X3X,XG.&X3X3X3X3X3X3X3X3Xe.K.3X3X3X3X3XJ.P.3X3X3X3X3XG.7.& V R ,.2.W.t.#     ",
"          & & (.C.9 e e & % G. X3X3X3X3X<XG.+X3X3X3X3X,XG.&X3X3X3X3X3X3X3X3XJ.K.3X3X3X3X3Xe.R.3X3X3X3X3X0.$.& 9 9 ] X.=.C =     ",
"          & & 3 f ,.,.,.& 3 G. X3X3X3X3X<XG.+X3X3X3X,X,XG.&X3X3X3X3X3X3X3X3XJ.K.3X3X3X3X3Xe.R.<X,X,X1X,X. . + / ,.& & & & &     ",
"          & & ,.,.,.,.1.& & G. X3X3X3X3X<XG.+X3X3X3X<X,XG.&X3X3X3X3X3X3X3X3Xe.K.3X3X3X3X3XJ.q.o . . . . . o % ) ,.,.,.,.K &     ",
"          & & 2.1.,./.wX& 3 G. X3X3X3X3X<XG.+X3X3X3X3X,XG.&X3X3X3X3X3X3X3X3XJ.K.3X3X3X3X2XG.0.. . . . . . X # / 2.1.2.wXm.=     ",
"          & & & 3 & Q.wX& & G. X3X3X3X3X<XG.+X3X3X3X,X,XG.&X3X3X3X3X3X3X3X3Xe.K.3X3X3X3X2XG.P.1X<X<X<X,X. X & & & 1.2.wXm.=     ",
"          & & ) ) ) C c & 3 G. X3X3X3X3X<XG.+X3X3X1X1X,XG.&X3X3X3X3X3X3X3X3Xr.K.3X3X3X3X2XJ.R.2X3X3X3X3X0.$.& R X.9 9 c a &     ",
"          & & ,.1.,.Q R & & G. X3X3X3X3X<XG.+X3X3X<X,X,XG.*X3X3X3X3X3X3X3X3XJ.J.3X3X3X3X3XG.R.2X3X3X3X3XG.8.& / ,.R P R x &     ",
"          & & ,.,.A.u.,.& 3 G. X3X3X3X3X<XG.+X3X3X3X3X,Xr.%X3X3X3X3X3X3X3X3XG.J.3X3X3X3X2XJ.P.2X3X3X3X3XG.8.& / ,.1.:.1.K #     ",
"          & & =.i.(.a.] & & G. X3X3X3X3X<XG.+X3X3X3X1X*Xr.%X3X3X3X3X3X3X3X3XG.J.3X3X3X3X2XG.R.2X3X3X3X3XG.8.# / ,.h.h.=.C =     ",
"          & & & & & & 3 % 3 G. X3X3X3X3X<XG.+X3X3X3X3X,XJ.*X3X3X3X3X3X3X3X3XJ.J.3X3X3X3X2XG.R.2X3X3X3X3XG.8.& ~ :.wX5X& & &     ",
"          & & ,.2.:.,.,.& & G. X3X3X3X3X<XG.+X3X3X3X3X,Xr.*X3X3X3X3X3X3X3X3XG.J.3X3X3X3X2XG.R.2X3X3X3X3XG.8.& & # + & ,.K &     ",
"          & & 2.:.,.,.,.= & J. X2X3X3X3X1XJ.+X3X3X3X,X=XG.&X3X3X3X3X3X3X3X3XJ.J.3X3X3X3X3XG.Y.2X3X3X3X3XG.8.& / :.,.:.wXn.&     ",
"          & & & f ,.,.,.# & G. X2X2X3X3X1XG.+X3X3X3X1X,XG.&X3X3X3X3X3X3X3X3Xe.J.3X3X3X3X3XG.R.2X3X3X3X3XG.8.& ! :.wXwX2.R &     ",
"          & & (.C.9 w w & 3 G. X2X2X2X2X,XG.OX3X3X3X3X,XG.&X3X3X3X3X3X3X3X3XJ.J.3X3X3X3X3XG.P.2X3X3X3X3XG.8.& 9 9 wXwX,.K &     ",
"          & & N.x.R R R & & G.P. X X X|.}.G.E. X X}.}.}.G.[. X X X X X X X Xe.J. X X X X XG.L. X X X X XG.8.& V R O.O.g u &     ",
"          & & N.b.:.,.,.& & %.%.&.$.%.%.%.%.$.&.&.$.$.$.%.%.%.%.%.%.%.%.%.%.%.%.%.%.%.%.%.%.%.%.%.%.%.%.%.| & / ,.v v O.D &     ",
"          & & (.F.] ] =.& & & & & & # # # # # & # # & # & & & & & & & & = = # = & & & & & & & & & & & & & & & R ] X.=.(.d.&     ",
"          # & & & & & & & & & & & & & & $ $ & & & & & & & & & & & & & & & & # & & & & & & & & & & & & & & & & & % % & & & &     ",
"                                                                                                                                "
};
