/* XPM */
static char *d2198c419d44495bfe2df264e4745ccdtsTjHHCZeY9hUgs8[] = {
/* columns rows colors chars-per-pixel */
"64 64 23 1 ",
"  c None",
". c #000008",
"X c #0B2B00",
"o c #731F00",
"O c #1B4B0B",
"+ c #2F671B",
"@ c #434343",
"# c #535353",
"$ c gray39",
"% c #777777",
"& c #FE0000",
"* c #AF4F00",
"= c #EB6300",
"- c #FF7F23",
"; c #FF7373",
": c #478733",
"> c #67A353",
", c #FFAF6F",
"< c #8BC377",
"1 c #979797",
"2 c #FF9797",
"3 c #FFBFBF",
"4 c #FFFFFE",
/* pixels */
"                                                                ",
"                                                                ",
"                                                                ",
"                            OOOOOOOO                            ",
"                         OOO++++++++OOO                         ",
"                      OOO+:::::++:::::+OOO                      ",
"                    OOO:::>>:::++:::>>:::OOO                    ",
"                   OO++:>>>>::::::::>>>>:++OO                   ",
"                  OO++::>>>>::::::::>>>>::++OO                  ",
"                  O+++::::>>::::::::>>::::+++O                  ",
"                 OOOOOOOO:::>::++::>:::OOOOOOOO                 ",
"               OOOO++++++++::::::::::++++++++OOOO               ",
"              OO++++:::::::++::::::++::::::+++++OO              ",
"              O+++:::>><>>::++OOOO++::>><>>:::+++O              ",
"              O++:>.o*-.-*o.+O++++O+.o*-.-*o.>:++O              ",
"              O++:.o*=,.,=*o++:>>:++o*=,.,=*o.:++O              ",
"              O++:>.o*-.-*o.+:><<>:+.o*-.-*o.>:++O              ",
"               O++::::><<>++:..::..:++><<>::::++O               ",
"                OO+++++++O+::++>>++::+O+++++++OO                ",
"             OOOOOXXXXOOO+::::>>>>::::+OOOXXXXOOOOO             ",
"           OOO+OOXOOOO..:4332......2334:.XOOOOXOO+OOO           ",
"          OO+:++OOO+++O.:;;..........;;:.O+++OOO++:+OO          ",
"         OO:::::O++::++.:&&.;......;.&&:.++::++O:::::OO         ",
"        OO:>>::+++::::+..::::::::::::::.O+::::+++::>>:OO        ",
"       XO+:>>:+++::>>:+OX+++:><<<<>:+++X++:>>::+++:>>:+OX       ",
"       XXO+:::+OO::>>:++OX............XO++:>>::OO+:::+OXX       ",
"     OXXXOO+::+OO+::>::++OOOXXXXXXXXOOO++::>::+OO+::+OOXXXO     ",
"    OOOOXXOO+++OX++::::+OOOOOOOOOOOOOOOOO::::++XO+++OOXXOOOO    ",
"    OO++OXXO+++OXO++::+++OOOOOOOOOOOOOO+++::++OXO+++OXXO++OO    ",
"   OO+:::+OOO+++OX++++++OOOOOOOOOOOOOOOO++++++OX+++OOO+:::+OO   ",
"   O+:::OOOOOO+OOOO+++OOOOOOOOOOOOOOOOOOOO+++OXOO+OOOOOO:::+O   ",
"  OO+:++%%%%$$OOOOXO+O+OO++++OOOOOO++++OO+O++OOOOO%%%$$$++:+OO  ",
"  OO+++1%%%$$$$OOOOOOXOO+++++++OO+++++++OOXOOOOOOO11%%$$$$O+OO  ",
"  OOO+111%$$$$$$OOOOXXO++++++++OO++++++++OXXOOOOO111%$$$$$$OOO  ",
"  OOO%%11%$$$$$$$XXXXXO+:::::++++++:::::+OXXXXX%%%11%$$$$$$$$O  ",
"  OO%%%$@...@#$$$$XXXXO+:>>>:::++:::>>>:+OXXX $%%%$@...@#$$$$O  ",
"  O$$$$@.....@$$$$ XXXO+::>>>>:++:>>>>::+OXXX $%$$@.....@$$$$O  ",
"  O$$$$.......$$$$  XXO++::>>>:++:>>>::++OXX  $$$$.......$$$$O  ",
"  O#$$$.......$$$#   XO+++::::::::::::+++OX   $$$$.......$$$$O  ",
"  O##$$.......$$##   XOO++++++++++++++++OOX   $$$$.......$$$$O  ",
"  O@###@.....@###@  XXXOOO++++++++++++OOOXXX  $$##@.....@##$$O  ",
"  OO####@...@####@  XOXO+OOOOOOOOOOOOOO+OXOX  @####@...@####OO  ",
"  OO@###########@O  XOO+:+++OOOOOOOO+++:+OOX  O@###########@OO  ",
"   OO##########@O   XXO:>>:++++++++++:>>:OXX   O##########@OO   ",
"    O@########@O   XXOO+:::::++++++:::::+OOXX   O@########@O    ",
"     O@@@@@@@@O   XXOOOO++::::+OO+::::++OOOOXX   O@@@@@@@@O     ",
"      OOOOOOOO    XOOO+OO++++++OO++++++OO+OOOX    OOOOOOOO      ",
"                  XXOO++OOOOOOOOOOOOOOOO++OOXX                  ",
"                  XXOOO+::+OO++OO++OO+::+OOOXX                  ",
"                  XXOOO+:>>:+++OO+++:>>:+OOOXX                  ",
"                 XXOXOO++:::::+OO+:::::++OOXOXX                 ",
"              XXXO++++OOOO+++O++++O+++OOOO++++OXXX              ",
"              XOO++::+++OOOO++++++++OOOO+++::++OOX              ",
"             XOOO+:::::++++++++++++++++++:::::+OOOX             ",
"             XOO++:>>>:::::::++++++:::::::>>>:++OOX             ",
"             XOO++::>>>>::::::++++::::::>>>>::++OOX             ",
"             XXOO++:::>::>::::++++::::>::>:::++OOXX             ",
"             XXOO+++::::::::::++++::::::::::+++OOXX             ",
"              XXOOO++++:::::::++++:::::::++++OOOXX              ",
"               XXOOO+++++::::++++++::::+++++OOOXX               ",
"                XXOOOOO++++++++++++++++++OOOOOXX                ",
"                 XXOOOOOOOO++++++++++OOOOOOOOXX                 ",
"                   XXXOOOOOO++++++++OOOOOOXXX                   ",
"                    XXXXXOOOOOO++OOOOOOXXXXX                    "
};
