/* XPM */
static char *_c6442b6257443969f4fbedcd89a39beO9LCPAZdx0PSA7lZ[] = {
/* columns rows colors chars-per-pixel */
"64 64 155 2 ",
"   c #00161D",
".  c #00191F",
"X  c #001721",
"o  c #021C24",
"O  c #081F25",
"+  c #041F28",
"@  c #081E2B",
"#  c #052126",
"$  c #082126",
"%  c #06222A",
"&  c #0A252C",
"*  c #0D282E",
"=  c #0C2731",
"-  c #0E2A32",
";  c #112D35",
":  c #132E38",
">  c #143036",
",  c #15323A",
"<  c #19353D",
"1  c #1D383F",
"2  c #163741",
"3  c #1C3741",
"4  c #173841",
"5  c #1E3A43",
"6  c #213D45",
"7  c #233E48",
"8  c #1F4045",
"9  c #1F4049",
"0  c #254047",
"q  c #26424A",
"w  c #29454D",
"e  c #2D484F",
"r  c #2B4650",
"t  c #2D4A53",
"y  c #324D55",
"u  c #334F59",
"i  c #345057",
"p  c #36525B",
"a  c #3A555E",
"s  c #3C585F",
"d  c #365660",
"f  c #3B5761",
"g  c #375861",
"h  c #3D5A63",
"j  c #3E5F68",
"k  c #3F6069",
"l  c #415D66",
"z  c #425E69",
"x  c #436066",
"c  c #44626B",
"v  c #49656D",
"b  c #4A696E",
"n  c #456771",
"m  c #496670",
"M  c #4D6A73",
"N  c #4E6F7A",
"B  c #516E76",
"V  c #526E79",
"C  c #4E7079",
"Z  c #55727B",
"A  c #59757D",
"S  c #5C797F",
"D  c #567780",
"F  c #5A7781",
"G  c #567881",
"H  c #5D7A83",
"J  c #5E7F88",
"K  c #617D86",
"L  c #627E89",
"P  c #5F8089",
"I  c #648186",
"U  c #65838B",
"Y  c #69858E",
"T  c #668791",
"R  c #698691",
"E  c #658991",
"W  c #6C8A94",
"Q  c #6D8D98",
"!  c #718D95",
"~  c #718E99",
"^  c #6F949C",
"/  c #74929C",
"(  c #79969D",
")  c #7C999F",
"_  c #7595A0",
"`  c #7A96A1",
"'  c #7D9BA4",
"]  c #7CA1A9",
"[  c #819EA6",
"{  c #849FA8",
"}  c #85A3AB",
"|  c #8AA5AD",
" . c #8AA5B1",
".. c #87A8B1",
"X. c #84A9B1",
"o. c #8EABB3",
"O. c #8BACB5",
"+. c #8CAEB7",
"@. c #8CA9B2",
"#. c #91AFB6",
"$. c #91ADB9",
"%. c #91AFBA",
"&. c #91AFB9",
"*. c #93B1BC",
"=. c #97B5BD",
"-. c #94B6BF",
";. c #95B3BA",
":. c #99B4BF",
">. c #9AB7C1",
",. c #9BB9C3",
"<. c #99BAC3",
"1. c #9BBCC5",
"2. c #9DBBC4",
"3. c #A1BFC6",
"4. c #A1BDC8",
"5. c #A4C5CE",
"6. c #A5C3CB",
"7. c #AAC7CF",
"8. c #AAC6D2",
"9. c #AAC6D1",
"0. c #AECBD3",
"q. c #B1CED6",
"w. c #B2CED9",
"e. c #AED0D9",
"r. c #B3D4DD",
"t. c #B6D4DC",
"y. c #B6D2DB",
"u. c #B9D7DF",
"i. c #B9D6DD",
"p. c #B6D7E0",
"a. c #BAD5E0",
"s. c #BCD8E3",
"d. c #BFDAE3",
"f. c #BFDDE7",
"g. c #BDDBE4",
"h. c #C0DCE7",
"j. c #C2DEE9",
"k. c #C2DFE9",
"l. c #C4E2EC",
"z. c #C4E2EB",
"x. c #C8E6EE",
"c. c #C7E8F1",
"v. c #CEECF6",
"b. c #CDEBF4",
"n. c #D1EFF7",
"m. c #D0EEF8",
"M. c #D0F1FA",
"N. c #D6F7FE",
"B. c #D6F4FE",
"V. c #D5F2FA",
"C. c #D8F6FD",
"Z. c #DCF9FF",
"A. c #DDFBFF",
"S. c #DBFCFF",
"D. c #DCFAFF",
/* pixels */
"o O X o # # o % % + & + + @ + + @ @ O o o @ & % $ # o o + X o o o X + + + & & % % # # # . # o . O o - = & + X + X X # o % + @ + ",
"* $ ; ; 0 0 p t y t p g r 4 2 5 : 3 & @ X ; > 1 e 1 - o X & ; , : : : ; - X : ; - % ; # o . o X , R ( j F H w = X @ - 4 , 5 5 = ",
"# $ , M p.S.N.S.c.} Q Q ..5.p.k.{ u ; & - 5 O.Z.h.l , % o - t ! k.s.8.f.r 4 +.v.f.y.t = * o O % q P Q X.X.M.m.D X & r P +.<.,.m ",
"o * 8 b u q U G U <.O.e.1.^ L J { i - @ = , h N s a 2 = X ; R H W  .%./ r T +.>.D R d + % % X * - H ^ E T J F 5 + , ] Q ' G T V ",
"# * q =.: g F q u M v F m n u f a 7 = X * 0 l p V l 6 @ * f d Q _ Q n D 2 Q T _ ^ A m 5 : o o % - _ _ m J Q m f X 9 Q H D N j n ",
"% * f 5.5 l 7 f f l z z z p g p a 6 = O # 6 b Y a s ; = = Z d f J z k k 2 T T T t k p j - o o & - ^ H d h n z r X q Q A g D h d ",
"% - N a.l z f f 7 u l a y r a l a w = o - 5 p b a f : - ; H z j j j k k 2 J D d s s s l ; . # & , Q 6 z j V z y : y F c a m c 2 ",
"# - - >.j z l l z z u y ; a l a f q - # - , p H s l ; O ; 4 f z j k d j - ' f d x a s s * . # O 2 t l  .f z l y o c l x p f f = ",
"+ 2 5 M M m z z z z m c f p f a e 7 @ O & ; ; ; ; 3 = @ = : 2 t f r u f ; Q f z h s v l *   O * : z l l l s v < & i l l l s s . ",
"+ - _ 5 j z z h z c l B M f f l y e * O ; f 6 1 Q D w o = H J } O.j 7 2 = m m j l w l b ;   X O y a h h p > < < & i b s s v s O ",
"@ d 2 k j j z n z m z z l B v v s w $ ; : 2.C.;.l p 5 + : N Z H V L ~ L 2 5 c j l l l l : X o & w a h a w < 6 ; - i f i s i o ; ",
"+ T - W m j z z z L z h a s B s I ; & & 7 x y s u l 7 + : M z M z z j m 7 ; q j l L l w = & X & < s 6 * * > ; $ > a e a x * > $ ",
"+ u 7 G F c z M v l a l h p l a y w $ & 5 s s s l l 7 @ : c f N f c j y q : + = - @ + ; X o # * : 6 7 -   o   X   y s p * < > X ",
"@ 7 3 D M l c z l v v z l l h s s e o o 0 s s s i a 7 O : A m F F c k h t l , > = @ < v 7 % & o - O A 7.#.B w O O > > 7 e > & O ",
"2 = = F z y [ z l l x l s s s s s < * $ 0 b s s l s 6 o : f p 7.h a h a t x j p - - H ! y - > & ; F c z p p a o X o X o + 6 6 X ",
"+ 3 3 M l B f z c l x l z i a s s - $ & w x y s a w 7 @ ; w u p h h x a x a a s < , K s q > * & : , h ( f r o O @ 6 K q.y { i @ ",
"@ 3 6 7 f { l F m z j m w f p a l * O o < u s f f w ; o ; B a s l l f s v s a f u ; Z a s ; + O o $ o . o o o o o o - q p q ; o ",
"= 7 2 7 u ~ Q F Z N V t t h ! i . > $ & ; : B ! y q % ; ; c l l l l e l v s f i s : 7 < 7 : % & % ; & o % - 0 M M h * o o o & $ ",
"= 2 3 : - @ ; p m 5 7 : ; & X % ; $ $ & @ < < e 1 ; - * : w l a a z 1 v l a l l l < ; B 7 ; o * * * y I +.| +.O.o.' U a > > O $ ",
"= 2 @ 3 _ s.4. .T K R W T ' ' F a w : * & % + O % o % * X ; l l 7 ; 7 O x B A x l : < 6 6 > O & * q i.V.H < q q Z C.q.( B 7 ; % ",
"; @ 6 R m c f a l l y q r p p f h y X & - = - : * # $ o X : 3 6 7 3 @ ; : 6 7 7 6 6 ; ; * & ; & # e Z t 5 n h g d u M C ( s $ # ",
"% = ; O X X o : 1 < 6 : & & : = + o X & = ; = & > o O + o o = a v ! F V v f y @ o o O : a q & & o E H p l x k p k s b p p a $ o ",
"X & & V #.| U z w 7 < % ; O + w ) / K z z p = w * ; O . . u v A z l B l l f l z y 6 7 B h a q $ # M W g c c M t p W x s s n % # ",
"+ ; < u p y 5 , * o ; : ; % * 2 l Z h q : ; : ; ; ; o & & $ K l ! 7 7 y y u y r 7 : l z a x & # % p t g j j f j G p a a s x $ # ",
"o : , w 5 7 r 7 : , : , = - = & % , 5 5 6 : ; w 6 + % * * ; o o X + + X X o o . o & & # # % & # = r ~ l z V f z j j f p l u & O ",
"o * = : = ; - : : : ; O # # = o : , : , 2 = - - = X O o o = % m R L U K c t 5 6 h t q 5 5 , - $ - = F f z z f j f z l K f w % O ",
"# # o & - & % X o * % * # & % & o + + + + + % % * ; * O & - f :.j.j.m.h.<.H H ( 6.0.y.} E h w % @ : ` f j H f l c = l l l r * X ",
"# - X = ; : O + # o # 6 v D N C J P M Z V R s v y : * & X - z.F V f L z h B P v y ( U } N 5 % o @ : L F j y d z t H f z c r % O ",
"# * w w < 8 w 3 o o 1 0 B < , C } 1.*./ J Y h ~ l u & o % 5 1.f v j Z h B j h a s a l f p ; * % X : 0.l x M x + V l l h l e & & ",
"o . > s B P u 3 # . < p 0 ^ p.^ ' n U N M m h p ( y # # # & r.j c k x k M b a a M f f z k < * % X * ( u c A = = t V Z A K 6 = O ",
"o . B 3.} Y f ; & # - x #.E n Z M k P g c V c f l w # o & ; g m g f A x a h a h B l q 1 > , * # % o < *   6 / A V X ; y 6 : *   ",
". $ i Z j a s : ; # # b s C M k k k M g h H U h s w & o = # , q a p p p x h t < t ` >.H h , < $ - $ & y #.S.x.v.m.x.y = * 6 & X ",
"# $ i I s s s 6 ; $ X i l z m j z z l z f K l l t q = # + % W u.q.~ g p u , z H h h p h l > 6 # ; 1 I n.~ ~ ,.' D m c q < ; & & ",
". $ s A s l W > - X O i p c z c h h l f l z l f f r - X + % 7 p p p g h f : z j k s a < 5 6 * X > o U M j z z j j f s s < : ; o ",
"# . 7 s s a p ; $ o & y f z z m z j l z p f l l z < ; + o + % - : : , : 5 - - : ; * * , * o o % : : W l D L L ' D d l u : : & = ",
"o $ = a a a 0 < o O < # Z h v m z f l l B z s y 6 ; ; + X * O X o & - # & = X @ # # & # # o $ * - p d v N f j u p d a 3 t : ; - ",
"$ O > > r 1 3 0 * o * < t N y 4 = d 5 d l l s s f u ; X * ; ; : > w & ; & o * # & ; & * O O X & - A f f f l f j l p p 6 < < = ; ",
"* . < 1 2 & : % O * % * - = g 6.,.m L L l x c l 7 7 , + . e f l s w & * & : - = > 5 4 8 & ; O @ * h l u z V f f H B H 6 : - = @ ",
". $ $ . X + o % * o   $ 3 R M l z z c z l Z l l z - : o o - ; ; , # , > q l P ;.y.c.q.q < & X @ % q l w 3 r z 5 < 7 6 y < ; : X ",
"$ $ $ 0 & o   + # O O % < z l m z z m z v Z l l h 3 : o . 6 6 q , > * e | V.C.] U *./ U w ; @ + * < p < 7 y 7 7 e 6 < 3 & - = + ",
"o # e i i > * 1 * # $ & - x p m l B j l c Z p q p : - % + o o $ o 1 b q.c.M d f L O.G f / 3 = @ o * 5 > 5 6 6 5 < < 6 > * & # . ",
"o 5 * e S ] c < * * $ $ > 7 : ; : 6 p v M h U Z w , - X . ; X ; 7.b.E i m f z h c j m j f r 2 @ o . o X X & X O o & o . # $ o o ",
"# # < 3.z.E I ) * . $ * - 6 l K W M l p x a < o 1 # o . % o % < @.k e x m f z z z c c j z u r & # # , * X o o o o o o . . o . # ",
"o # t Z h s s h 8 # . # o o & $ # % # # . o o o o o & . o # & 1 W t x k z z z z z j m j l f 7 - > i q , 5 ; % % $ O # * & ; * o ",
"# * S b s s p s i . . > > & o # # o , p j v M Z I I w $ o * ; v h j j l j f z z c n z L M f r : o 0 x W l.x.9.! i o , > > s $ # ",
"# # 0 Z p h s h e . > Y | H *.r.=.3.u.( I 6.q.' l l ; & o O $ w R z c j z z M z z m z f m R v 7 # ; ;.) h u h s q o , O I b # # ",
"$ # > < s s s y 8 . $ e B e v w q g M p s H h l s s * * o * o p K d m m z z l z n z z z z V y w ; ; v S l h g h y o ; o { 5 # O ",
". # o x s s i > ; . $ y B i a a a h a h a p s s p s = * o % O 7 $.j h c z f [ z z z f z z V u r * i e S h f v a 5 . : * q 1 + o ",
". o & x F l 6 a + * , # 5 p h p q 4 t g D N v h - q o o + + + t X.c j j f z z c Z c v l z c l e * < w k u z j t = X # & 8 , $ # ",
"# o * 1 7 < & + r ; # : # # % % = 4 2 - : - : > - * o + # + o t p.J D D z z m V H m c l l c l 7 ; 1 > 8 r t w 6 & + > * * * $ o ",
". . & . ; 3 7 : * - - t u s G H J J } Q T W +.L x h : - + + o 6.` Q _ 7  .j l l j z l x x l s w * 6 * , q r y 5 * * & $ * > o o ",
". > 0 s h a v { U - ~ ( M.N.v.l.l.>.D F J Z B c H : = - + X o h T u f D m z l l z c z x l x l 7 * o o o + + # # X - . % ; * # . ",
". # ; w <.z.Q M p t M v k Z Z N 1.M H M l f h p a c < : o @ O ; 7 d $.z B l l l h l l l u l a y # & % ; % % o o # # $ . . # . o ",
"# . < / M M m u > Z l j j c M c h z H z l s l B l a 7 ; @ & o t j f D z z l l l f f a u i l u 7 o & 8 5 c '  .: & o $ o ; > # o ",
"# o 8 S M p 5 3 N h j l z g j Q l h Z h p a f l a l 6 : o o X h f f z m M l l f l l s a l f f 7 # & ; M 8.` W W = # - 1 < y 8 . ",
"o . 1 x 5 c z d H j l c h z z j j x j g h v p s l p i - o O o s l l h f z a a l z i i l i p l * o & & ;.e.H F z & % $ w 5 ( } . ",
"o o , d l m z z A x l x j c j h h k s x g h s l f s 5 $ o O $ c d f h h h h x l y M s p f a u ; o * * S M h h a - # * 0 s W s   ",
"o o - m z h m z p l v U j p h g s a a a a h s a a l < # # o o q f p h a a a A y j p s f { i < < o & * J c p a a , o > * q Z l X ",
"# o + L p f f f j f f K U f f j j a h h s a l l s 3 q # # O # ; f u p B l W Q x a h h a 3 < ; ; % > & v f h A y ; # % 0 w l l O ",
"o o @ = F p w u u p B U K W l l a a p a j b B v w 6 < % % # o * < 6 v V W U t Y f x Z B : 7 6 @ o * # H a f  ., ; # , q r i l   ",
"& . # & , q f f l v ; 0 6 : 3 u j N Z M y 6 q r < : ; * o o * # 3 q 7 y q w 0 w : * 5 p i 7 * & o o # A y 5 m ; ; o ; i y s e ; ",
"# # . & = : 7 5 w < 1 : = & : : 5 q 6 5 : = ; & = * & & o # O % ; : ; < > 1 - - 5 7 q < : ; ; & % # & b p ; ; ; ; o : . 7 s 7 * ",
"# . & * X = % : ; ; o % % * & & % & * = ; - = ; = = * O & . o # @ % ; - : - , - ; = ; ; > @ & ; & . o w w ; ; ; $ - . $   *   * ",
". # o # & & O o o O   o o o o @ + o @ o - - = = & & & o o o o o O @ + + + & o % X o + O @ @ O o * $ o . o O % o & o $ X O . O O "
};
