/* XPM */
static char *df373b52ad6f4a359bb088d4bf497bb1HgvbzzUyTUGbiuKB[] = {
/* columns rows colors chars-per-pixel */
"64 64 99 2 ",
"   c #131D38",
".  c #141E39",
"X  c #151F3A",
"o  c #16203B",
"O  c #17213C",
"+  c #18223D",
"@  c #19233E",
"#  c #1A243F",
"$  c #1B2540",
"%  c #1C2641",
"&  c #1D2742",
"*  c #1E2843",
"=  c #1F2944",
"-  c #202A45",
";  c #212B46",
":  c #222C47",
">  c #232D48",
",  c #242E49",
"<  c #252F4A",
"1  c #26304B",
"2  c #27314C",
"3  c #28324D",
"4  c #29334E",
"5  c #2A344F",
"6  c #2B3550",
"7  c #2C3651",
"8  c #2D3752",
"9  c #2E3853",
"0  c #2F3954",
"q  c #303A55",
"w  c #313B56",
"e  c #323C57",
"r  c #333D58",
"t  c #343E59",
"y  c #353F5A",
"u  c #36405B",
"i  c #37415C",
"p  c #38425D",
"a  c #39435E",
"s  c #3A445F",
"d  c #3B4560",
"f  c #3C4661",
"g  c #3D4762",
"h  c #3E4863",
"j  c #3F4964",
"k  c #404A65",
"l  c #414B66",
"z  c #424C67",
"x  c #434D68",
"c  c #444E69",
"v  c #454F6A",
"b  c #46506B",
"n  c #47516C",
"m  c #48526D",
"M  c #49536E",
"N  c #4A546F",
"B  c #4B5570",
"V  c #4C5671",
"C  c #4D5772",
"Z  c #4E5873",
"A  c #4F5974",
"S  c #505A75",
"D  c #505976",
"F  c #515B76",
"G  c #515A77",
"H  c #525C77",
"J  c #525B78",
"K  c #535D78",
"L  c #535C79",
"P  c #545E79",
"I  c #545D7A",
"U  c #555F7A",
"Y  c #555E7B",
"T  c #565F7C",
"R  c #56607B",
"E  c #57617C",
"W  c #57607D",
"Q  c #58627D",
"!  c #59637E",
"~  c #5A647F",
"^  c #5B6580",
"/  c #5C6681",
"(  c #5D6782",
")  c #5E6883",
"_  c #5F6984",
"`  c #606A85",
"'  c #616B86",
"]  c #626C87",
"[  c #636D88",
"{  c #646E89",
"}  c #656F8A",
"|  c #66708B",
" . c #67718C",
".. c #68728D",
"X. c #6A748F",
"o. c #6B7590",
"O. c #6C7691",
"+. c #6D7792",
"@. c #6F7994",
/* pixels */
"G G J J J L L L I I L J J G G A A A A A A A A A R A m M c ! O.h p 9 * V b M A | A A S H H H R H R R I I T I T I I I I I I I I I ",
"G G J J J L L L I I L J J G A G A A A A A A A A H S M A m H { b s 9 # N m M A | A A S H H R R R I I I E I T I T I I I I I I I I ",
"G J J J L L L I I I L J J J G A A A A A A A A A S H M A A A R H h e # M m M V | A A A H H H R H T I T I T I T I T I T I T I T I ",
"J J J L L L I I I I L J J J D D S S S S S S S S A H A A H M A _ b e # M m M V | A A A S P R R R I T I T I T I T I T I T I T I T ",
"J J L L I I I I I I I J J J A D S S S S S S S A A H A A R M b { M i # b b M A { A A S H H H R R T I T I T I T I T T T T E T T T ",
"L L L I I I T I I I J J J D D D A A S S S S S A A H H A H A M ] H i # b m A A ] A A S H P R H R I T I T I T I T T T T I T T T T ",
"L L L I I T I T I I J J J J D D S H S H H H S H H A H A A R M _ R s + b b A A ] A A A H H R R H T I T I T I T I ^ I ^ T ^ T T Q ",
"L L I I I I T I I I J J J D D D H S H S H S H H R A R V A R S ! R s # b b A A ] A A A H P H R R I T I T I T I T I ^ T T T Q T T ",
"I I I I I I I I J J J J J J J J H S A S S A A A A H M A R A M H _ p # M c M M A _ A b S R H H R I L I J D ^ J D I I J J ^ ^ J ^ ",
"I I I I I I I I J J J J J J J J S H H A S A A A A S A A R A M R ! s # M b M b S R M b M A A A H I J ^ J J D ^ ^ I I ^ I J J ^ D ",
"I I I I I I I I J J J J J J J J H S H A S S A A S H V A R A M R ~ p # M c M b A R A M H H H H R ^ L I ^ ^ J ^ D ^ I I I D ^ D ^ ",
"I I I I I I I I J J J J J J J J H H S H S S S S H H A A R A M R ~ i # b z m b A R H H R H R R R I L J J ^ J D D L I ^ J ^ D ^ D ",
"I I I I I I I I J J J J J J J J H H H H H S S A H H A A R S M R _ i o m z M b V V A H A A S A S I L I I D ^ D ^ n ^ ^ ^ D D ^ D ",
"I I I I I I I I J J J J J J J J P H H H S H H A H H A H Q S N Q ! i # b z M b V M H R R H H H H I ^ I I D ^ ^ D ^ ^ c ^ D ^ D ^ ",
"I I I I I I I I J J J J J J J J P H H H H H S H H R A S Q S N R ! i o m z m b A A R ` ! R Q Q R T I T I ^ D D ^ M ^ ^ b B ^ D ^ ",
"I I I I I I I I J J J J J J J J H H H H H S H S H H A H R H A R ! i o b z m b M b H ! R A H H S I T I T D D ^ D ^ N ^ B ^ B ^ B ",
"I J P H P H P H R H R H P H H H H H P H P H P H A S Q H Q H c ] c r * a c N N N n ^ n ^ n ^ N ^  .' ' _ / ^ ^ ^ ^ D D ^ D D ^ D ",
"L I H P H P H P H R H H H H H H H P H P H P H P H A R H R H m ` N p > i a f a f g l l c l n n n D D D I ^ / / [ ^ ^ ^ ^ ^ ^ ^ ^ ",
"L H P H P H P H R H P H H H H H P H P H H P P H H S R H R H N ~ g y > p a f g n l n n N N ^ x N m n D v N N N N v N D D n ^ n N ",
"H I H P H P H P H P H H H H H H H H H H H H H H H H R H H P H Q f t - t r r y g l ^ N N M ^ ^ ^ D m n D N D D D v N m N n N D N ",
"P H P H P H P H H H H H H S H H H H H H H H H H H H H P H R R H a t > y y y a n l n M M N ^ n ^ c c n n n m m m n N M n n N N N ",
"H P H P H P H P H H H H H H S S S H S H H H S H H H A H H R ~ A f q # r q q r a g g l g l g a g z z l j h f d s a a a a a a g a ",
"P H P H P H P H H H H H S H S S H S H S H S H S P R A R A R ] M l q . < > * O O * % # # O O .   o o O @ # $ % % O O O O O O + + ",
"H P H P H P H P H H H S H A A A S H S H S H S H H R M H A R { b g 5   0 y a y i M n n l l f a y l j s t 9 3 > - f a f g a g g g ",
"H G S H H P H P H P H H H H S H H S H S S H S H A H M H M ] _ z f - # f f l l N N ^ g l n l l n M ^ ^ a g a # g ^ ^ ^ ^ ) { X.O.",
"H H H H H H P H P H P H H S H S S H S H H H H S A H N H M _ ! z a - # f a l l N ^ ^ ^ N ^ ^ ^ N N ^ ^ g g a # a n l N m ^ N ^ ^ ",
"S H S H H P H P H P H H H H S H S S A S S S S S A H A H V ] R k a - # f d l l N N ^ ^ ^ N c N M N ^ ^ ^ l a # p ^ n N n N l c n ",
"H S H H H H P H P H P H H S H S S S S S S S S S A H A H A ] A h a - % l g l l n ^ ^ ' / ^ ^ ^ ^ N N ) ) n a % r ^ ^ ^ ^ ^ ^ n ^ ",
"S H H H H H H P H P P H H H S H S S S S S S S S A H H A A { m h y * % l l l l n ^ n ` ^ ^ M ^ ^ ^ N / ' N g % r N ^ ^ M N ^ n D ",
"H S S H H H P H P H H H H H H S A A A A A A A A A R R A H | z s y * * l l l g c ) a ^ c ^ ^ ^ f N N ^ ' ^ x # r N N n ^ ^ N N ^ ",
"S H S H H P H P H P H H H H S H A A A A A A A A A H Q V H ..s s t * * l l c g n ' g / c N ^ ^ ^ ^ ^ ^ ^ ) M O 0 ^ ^ ^ N N ^ ^ ^ ",
"H S H H H H P H P H P H H S H S A A A A A A A A M R ! A H ..s s r % * c c c g l ^ f X.^ n n ^ ^ ^ ^ N ^ ' N O 5 ^ ^ ^ N ^ ^ N c ",
"^ ^ ^ ^ ^ N ^ n ^ ^ ^ ^ ^ ^ ) ) ^ ^ ^ n n N N ^ ^ l N N n ^ l a , < * a g l N ^ N ^ M ^ ^ ^ N ^ N ^ l ^ ^ l # y ^ N l ^ ^ N N ^ ",
"^ N n ^ M n ^ ^ N N ^ ^ ^ ^ ^ ^ ^ ^ ^ / ) ^ ^ ^ ^ ^ ^ n a a y y < < * a g l N ^ l ^ N ^ c ^ n ^ ^ ^ N ^ ^ g * r ^ ^ c ^ ^ M n ^ ",
"0 r y y r t a g a g f f y p a a f l ^ N ^ N ^ l n ^ ^ g y r y a < > * a f g N ^ N ^ n ^ N ^ n N c ^ ^ ^ ^ a * q ^ N N n ^ N M ^ ",
"t y a a f y y t y y r r 0 0 0 0 r r y a a a g g f p g a q 7 0 r 3 > % f a f N ^ M ^ N ^ ^ ^ N ^ N ^ n ^ ^ l - 5 n N ^ ^ ^ ^ N n ",
"y a f g g g g a y y y t r 0 0 0 r y y a f g g g a p y y t r 6 < 3 * * g y g ^ ^ N ^ N ^ N ^ ^ N ^ ^ ^ N c g - < n N n ^ n N N M ",
", > - > > < 3 7 3 3 3 < < , , , = , 5 0 0 7 3 < 0 3 3 0 r r 3 * < # * g t g N N n ^ ^ ^ ^ ^ n ^ ^ M ^ N n g - * n N ^ ^ ^ M N ^ ",
"% % % * > < 5 0 < 3 < 5 3 5 5 5 > * < 3 < < > # > > > - > > - * 5 # % l r a ^ N N ^ N ^ ^ ^ ^ N n ^ ^ ^ l g > # l ^ ^ ^ N ^ N M ",
"# * 2 r f l M M c l c n n M N N ^ ^ n l j l n ^ f g f r 5 < 5 q 3 O % l q y N ^ n ^ ^ ^ n ^ N ^ ^ M N ^ g g - # * 0 a y 0 r 0 3 ",
"< 5 0 N n ^ a c N N N N N N N N ^ ^ ^ ^ ) ' '  . .+.) c n c g l a < # c r n ^ ^ n M ^ ^ ^ ^ N N ^ N n ^ N n O % * > O > * * * < ",
"< 7 q N n N l n N M N N N N M n l f c n N N c ^ N ^ ^ ^ ) ^ n y g 7 + l r n ^ N N ^ ^ ^ ^ ^ ^ ^ ^ ^ N ^ ^ l + < l n g n ^ ^ ^ ^ ",
"< 0 t N l ^ c N n N M l N n N l N ^ n M N n N ^ N N n ^ ^ ^ ^ a g q + g y M l ^ N N n ^ N ^ M ^ ^ l n ^ ^ y * r c N M ^ n ^ ^ ^ ",
"< q a N n N N N c ^ N ^ ^ c N ^ ^ N ^ n ^ ^ N n ^ N M c N ^ ^ N g y # g a ^ n ^ ^ ^ n ^ ^ ^ ^ ^ ^ n ^ / ' a * a g N ^ n M N ^ N ",
", q l n N n N ^ N N ^ N N M N M ^ N N n l n M M ^ l ^ ^ M N ^ ^ f t % n M ^ n M n ^ M _ ^ ^ M ^ ^ M ^ ^  .a # a a n ^ ^ ^ ^ ^ ^ ",
", r M n ^ l ^ n N n n N ^ n ^ n n N ^ ^ ^ M N ^ l n N ^ ^ M ^ { l t % M l ^ N c c ^ l [ ^ ^ ^ ^ ^ N n ^ ) a + f y a ^ n n M ^ n ",
"> y n n ^ n N ^ N ^ n ^ n N N ^ n n N N N N ^ N n N n n n n ^ ` ^ r + c a ^ n n M ^ a  .N ^ N N ^ ' N N N p O j l ^ ` ^ ^ n N l ",
", y ^ c n l ^ n n ^ N N n ^ M ^ M M N M ^ M ^ ^ ^ ^ N ^ ^ N g ^ ^ 0 + g t ^ ^ M N ^ a  .^ n ^ ^ ) X.N x a y   l y ^ ) ^ N n ^ n ",
"7 g n ^ n ^ l ^ n N N N ^ N ^ c M N ^ N ^ n n N ^ ^ N ^ n N N l ^ p + 3 > < 0 0 3 5 3 5 5 5 3 5 5 0 0 5 , , 5 r t ^ { ^ ^ N ^ l ",
"0 f g ^ n N N ^ n ^ n ^ n M N M c ^ n M ^ N ^ N n N N n ^ N ^ ^ ^ a + 2 > 7 y p y y y y y y y y r r y r q r a l t ^ ^ ^ n N ^ c ",
"q f M N n c N N N N N N M n ^ c n N N M n ^ n n ^ M ^ N ^ n N N ^ y O 3 < r l c l l l c c c l n l g n x g l l n l ^ ^ ^ l ^ N n ",
"y a N ^ ^ g ^ ^ ^ n ^ n N ^ N M n ^ N n N N N ^ M ^ n ^ N n ^ l ^ r O 0 0 p x n n n n n N N n c ^ ^ N ^ N c ^ c ^ N N n n N ^ M ",
"p l ^ n ^ g ^ M ^ N ^ N N N N N N ^ n ^ n ^ ^ N M N N ^ M N N ^ f 5 + t t f l g l l n c n M N ^ n N N ^ ^ N ^ ^ ^ M ^ n N N ^ c ",
"a n N ^ ^ n M M M N n n ^ n n ^ N M M N N N n n n ^ N n n ^ ^ N a 2 # a a l l f g g l l n n N N n ^ n ^ ^ ^ N ^ n ^ n n N ^ N N ",
"f l ^ ^ n c M ^ N ^ N ^ N M M N ^ n n ^ N ^ N ^ ^ ^ M ^ N c n c l 0 % a f l n g g l c n l N ^ N ^ ^ n N M N M l M N ^ N ^ N ^ n ",
"g ^ N ^ M ^ n ^ N n N n ^ n ^ N N N M N N n n ^ c M N N N ^ ^ n ^ t - g f c N n c n n N n ^ N N c n n ^ ^ ^ ^ c l ^ N ^ N M n M ",
"g g g ^ ^ ^ ^ N N ^ ^ ^ c c l j n N ^ ^ n N M n g a n N n ^ N ^ g t # r n N c M a l ^ ^ ^ ^ ^ ^ N n ^ N n ^ N n N ^ ^ n M n M N ",
"y a l N c n ^ ^ ^ l g y a g l l N M c n M M n c ^ ^ ^ ^ ^ N N ^ x y + r n N l n l l N ^ ^ ^ ^ ^ ^ ^ M n N M ^ ^ N n N n N ^ ^ N ",
"y a l n M N N n y a f a n l n l M M n n n n ^ ^ ^ ^ ^ ^ ^ l M ^ l p + r l ^ n N c ^ ^ ^ ^ ^ n n M ^ M ^ ^ M ^ M ^ ^ n ^ N n n n ",
"g g a l ^ M a 7 0 a ^ ^ ^ ^ N c ^ N n M n n l N M n N N ^ c n ^ l y + t l N g ^ ^ n ^ ^ N N n n N n ^ N n ^ N n n N N N N ^ N N ",
"g g l l l l f r c n ^ ^ ^ M n n n n N N N N n n g j n ^ ^ l N ^ l t O t M N n ^ N ^ N N N ^ N l ^ n N ^ ^ n N ^ N n N n ^ N N ^ ",
"r y y y y f ^ ^ ^ ^ M N c M n l l n N N ^ M n l N M M N N n N ^ g r O r N ^ n N ^ N N ^ ^ N ^ ^ M ^ ^ M M ^ ^ M ^ ^ N ^ n M N c ",
"q 7 5 r y N ^ ^ n n l N M ^ M l n n n N l l n n n ^ ^ N ^ l l ^ g t O r n N N ^ n N ^ N n N ^ M N n n N n N N n n N n N n ^ N ^ ",
"y 3 - y ^ ^ ^ y M ^ N ^ n l l ^ N n n l c l n n n n l ^ N n M ^ g r . r M ^ n ^ ^ ^ N M ^ N M n ^ ^ M ^ ^ M ^ ^ n ^ ^ N M N N c "
};
