/* XPM */
static char *_7f1ee7a9f5c40ceac87258e900c3e477ak6hF4OY8pIc9B6[] = {
/* columns rows colors chars-per-pixel */
"64 64 204 2 ",
"   c #000D37",
".  c #000D3C",
"X  c #00133E",
"o  c #000E41",
"O  c #001444",
"+  c #001B45",
"@  c #00154A",
"#  c #001C4B",
"$  c #001651",
"%  c #001D52",
"&  c #002346",
"*  c #00224D",
"=  c #002A4D",
"-  c #002353",
";  c #002A55",
":  c #00255A",
">  c #0F2358",
",  c #002B5B",
"<  c #0D2E5D",
"1  c #003255",
"2  c #01325D",
"3  c #0B325D",
"4  c #003A5D",
"5  c #012761",
"6  c #012D62",
"7  c #0C2E64",
"8  c #013463",
"9  c #0B3363",
"0  c #003B64",
"q  c #0B3C65",
"w  c #01346A",
"e  c #0B356B",
"r  c #013B6B",
"t  c #0B3B6C",
"y  c #133564",
"u  c #1B3465",
"i  c #113C65",
"p  c #12346A",
"a  c #133C6C",
"s  c #1C3E6E",
"d  c #013670",
"f  c #033D73",
"g  c #0C3D74",
"h  c #083F78",
"j  c #133771",
"k  c #133E73",
"l  c #1B3D72",
"z  c #213D6F",
"x  c #203D79",
"c  c #00405C",
"v  c #004164",
"b  c #01426C",
"n  c #0C426D",
"m  c #014A6C",
"M  c #0A486F",
"N  c #1D4066",
"B  c #13436D",
"V  c #19436E",
"C  c #10486D",
"Z  c #044474",
"A  c #0C4474",
"S  c #034B74",
"D  c #0C4A75",
"F  c #05457A",
"G  c #0B457B",
"H  c #044B7B",
"J  c #0C4B7C",
"K  c #144374",
"L  c #1A4374",
"P  c #144A74",
"I  c #1A4A76",
"U  c #13467B",
"Y  c #1B457B",
"T  c #134B7C",
"R  c #1A4B7C",
"E  c #015076",
"W  c #0D5176",
"Q  c #03537C",
"!  c #0C527D",
"~  c #025B7C",
"^  c #0B597F",
"/  c #105276",
"(  c #13537C",
")  c #1B527D",
"_  c #155A7D",
"`  c #19587D",
"'  c #224574",
"]  c #2B4576",
"[  c #214873",
"{  c #284A77",
"}  c #23457A",
"|  c #28467A",
" . c #214C7B",
".. c #294B7C",
"X. c #205078",
"o. c #054781",
"O. c #094783",
"+. c #054C82",
"@. c #0C4D82",
"#. c #0D4D8A",
"$. c #124583",
"%. c #134D83",
"&. c #1A4C82",
"*. c #154B8B",
"=. c #184C88",
"-. c #045483",
";. c #0C5384",
":. c #055B84",
">. c #0C5C84",
",. c #06568C",
"<. c #0C538A",
"1. c #045C8A",
"2. c #0C5C8B",
"3. c #135384",
"4. c #1B5384",
"5. c #145B84",
"6. c #1B5B85",
"7. c #14548A",
"8. c #19558A",
"9. c #135B8B",
"0. c #1B5C8B",
"q. c #0B5B92",
"w. c #195792",
"e. c #145E91",
"r. c #1C5D91",
"t. c #1E5C99",
"y. c #224D80",
"u. c #235484",
"i. c #295484",
"p. c #235B86",
"a. c #24578A",
"s. c #225D8B",
"d. c #2B5D8D",
"f. c #245E93",
"g. c #2B5C92",
"h. c #056384",
"j. c #0B6284",
"k. c #056885",
"l. c #0C6986",
"z. c #04648B",
"x. c #0C648C",
"c. c #06698B",
"v. c #0C6A8D",
"b. c #136286",
"n. c #1B6186",
"m. c #116884",
"M. c #14638C",
"N. c #1B638C",
"B. c #136B8D",
"V. c #1B698D",
"C. c #09708F",
"Z. c #13708F",
"A. c #066491",
"S. c #0D6493",
"D. c #066B93",
"F. c #0C6B94",
"G. c #0E6699",
"H. c #016F99",
"J. c #0D6D9B",
"K. c #146493",
"L. c #1B6493",
"P. c #146B94",
"I. c #1B6A94",
"U. c #146699",
"Y. c #1C6599",
"T. c #146C9A",
"R. c #1A6C9B",
"E. c #0E7396",
"W. c #02739B",
"Q. c #0C729C",
"!. c #137194",
"~. c #187197",
"^. c #14729D",
"/. c #1C739C",
"(. c #206487",
"). c #23628D",
"_. c #2C658F",
"`. c #266A8F",
"'. c #236494",
"]. c #2B6293",
"[. c #226B95",
"{. c #286C93",
"}. c #23659A",
"|. c #2C659A",
" X c #236B9B",
".X c #2B6A9B",
"XX c #306F9B",
"oX c #22719A",
"OX c #156EA2",
"+X c #1C6EA0",
"@X c #0373A1",
"#X c #0B77A1",
"$X c #0E78A2",
"%X c #1473A2",
"&X c #1D73A2",
"*X c #157BA4",
"=X c #1979A3",
"-X c #1B77A8",
";X c #137EAA",
":X c #256EA0",
">X c #2D6EA4",
",X c #2175A1",
"<X c #2B79A4",
"1X c #3371A4",
/* pixels */
"#.O.o.r U.D.@XH.@X@XR.;.9.9.q.J.A.P.M.b.P 4.f F o.w &.T @ e 1X7.-.@.J 0 P.F.Q.W.@XH.D.:.K.x.1.J.z.H :.x.A Y t.#.,.<.+.%.- 4.<.#.",
"#.*.$.r 3.x.F.#X#XJ.Y.J 7.0.U.T.x.>.W J w K J 8.%.7.4.U @ a %.F 8.@.D r 0.>.D.Q.J.D.K.Q N.Y.K.T.v.h.>.5., t 3.7.9.<.8.F @ t @.<.",
"3.T Y 6 Y 6.^ b.>.3.u.l L u.5.M.B.M.s.p.a k D S 3.T T K O k ( T I R Y j &.%.<.M.2.9.8.h &.f.0.M.j.N.4.d.3 L U J T ( J G # Y K A ",
"; , , # - 6 1 4 1 8 9 - @ ; ; = , 1 8 8 % - 2 8 8 0 Z w : , 1 - , , % $ 5 r 6 , 8 6 5 5 : w r 0 c 0 4 , @ - 8 8 4 8 Z d : # , , ",
":.I.K.L.}. XI.N.2 g F Z w F E ~ ~ K.U.U.q.F.F.v., 9.K.2.U.S.B.m.Z %.7.<.O.o.@.Y.;.%.<.<.+.,.-.Q ^ ^ L.;.>.Q x.P.= '.U.e.Q R.<XE ",
"M.I.,.q.Y.Y. X6.r U 8.*.F @.Q Q b 0.R.%X%X^.E.v.O 0.e.K.U.S.I.^ S J G @.<.7.@.T Z G @.<.#.-.Q ^ v _ M.I.P.P.k.>.= T e.K.&XM.I.b ",
"t &.0.'.f.8.3.A 9 K &.&.&.R P Y t R 4.7.9.9.M.( # } d.|.6.'.d.B 9 s U A G &.L t e K U 8.J J I R i V P ( _ 5.D n + [ &.].p.(.(.I ",
"- # % % : % - * # - - % : % # - O @ # : - - , + O # @ O - # O O @ @ - % - # - % O : % , : - # = + + - - = = - * X + + @ # * + O ",
";.J Z Z L.P.S.F.F.S.).J .X6.>.M.L.K.L.9.J |.L.9.Q I.oX9.* U J &.J @.F Z 0.}.M.R.U.K. XH H <.,.,.r ,.Y.e.) XX}.K.I.Z  XL.- T %.@.",
"o.@.A 0 3.j.P.Q.^.~.N.b 6.N.I.U.A.,.,.! Z f.Y.R.&XT.I.b O g @.@.3.3.%.0 9.9.S.J.%X+XL.H ! L.I.U.S.2.Q W b 8.Y.+X/./.r Y.- w F #.",
"&.&.Y 3 ) ( 0.3.M.5.I 2 P ).L.N.I.M.b._ n X.6.L.9.M.m.` # P A &.k R i.4 ) ) 9.e.9.9.7.P P s.s.e.N.K.N.`.q t f.>X X[.'.2 O  .&.h ",
"% : - + - # : 6 , : % # ; 0 0 8 0 v 4 1 & = 2 0 b m c 4 = , , , $ - + X ; 0 8 9 r 8 0 = & 0 8 Z r w 2 1 + # : : , ; W 4 * , : 6 ",
"*.7.%.@.;.+.8.f.%.@.G ! Q Q +.-.;.M.v.k.~ ~ x.M.; 5.v.v.x.>.P.Y.J 4.! >.E E ;.,X9.:XS x.!.v./.Z L.&X=XQ.k.v.x.:X% N.K.K.M.b.x.S.",
"F @.H H H 7.@.%.h G G H H Z H S r 5.V.v.Z.v.V._ * ).x.v.v.T.I.>.D T S H :.-.J @.@.Y.R.P.v.z.P.[.3.9.T.J.^.^.2. X# 4.L.K.P.P./.2.",
"3 L %.T A K K B y s K K P K D C < B R p._.p.p.X.O L _.0. X0.s.K 9 P T G T T Y t k &.s.e.L.I.M.6.R 4.8.2.M.6.( u.# ..8.}.9.N.'.Z ",
"+ @ # - - * * + # # # % ; + * + O @ O O + O @ + O O # % # # @ # O * $ : : $ % # @ # : : , ; - - O # % : - - , # . # % # - # # # ",
"&.T Z b I.I.P.R.R.I.[.0 oXM.M.K.L.9.L.N.D ( ;.<.8.3.0.<.- }.+X-XOX+Xe.7.7.@.<.7.7.3.7.b D S b 0 m V.L.0.T %.9.>.3.L.<.@.: J ;.@.",
"J J J r 2.K.G.T.T.P.M.1 m.V.P.U.S.-.>.H A T e.e.<.>.7.F # 0.U.J.*XT.Y.Z J F #.,.7.@.J 0 _ {.{.N.>.~ S W U 3.<.,.;.7.7.O.$ U @.H ",
"R I %.8 G 3.;.9.L.6.) , R 6.).N.M.N.N.a.9 a f J T 3.%.d : =.}.}.I.N.&.k j Y f T Z H J r M 6.V.V.V.5.N.).n t F Q 3.J T k $ l U T ",
", ; , % 5 w 8 8 8 8 8 % , 8 0 0 c v 4 , @ 8 8 w 8 g d d : 5 w , ; * % @ 5 : , , 2 0 2 , , b v c 4 4 b 1 * , 0 r 8 f A t % , ; 1 ",
"^ I.U.U.G.U. XL.M D @.H H H S m m n.<XM.j.h.F.P.- A $.#.o.o.-.S 1 P A ( h G U 3.N.T.S.G.q.J.D.!.m.M.V.^ :.x.h.1., 0.L.K.q.P.P.P.",
"n.V.1.z.T.T.'.b A D G H H H S D 4 D  XK././.~.M.+ k *.#.#.<.9.H , V b r T Y L , 3.I.U.%XF.x.c.T.^ 6.I.N.I.x.z.x.# 8.N.j.v.P.P.>.",
"n ` 9.9.2.3.4. .a V t A Z A g a 3 V u.6.` 6.3.p.o u y.=.=.U l 7 X N B P q a a 9 K 4.7.I.Y.Y.N.6.P V P P 6.( 5.( @ } s.N.V.`.(.M ",
"O = = ; , , * @ @ - - , - - : # O O : - 1 - @ + . @ @ % @ O @ O X # + # - - O O O - : , : ; , ; + O * ; ; * 2 # O @ * * & * & X ",
";.-.F F R.R.&XT.R.I. XJ 7.;.,.;.7.7.7.@.r 7.<.<.@.0.3.T # w %.%.J A Y e y.&.w.8.7.*.8.Z  X@.r 2.H H K.M.%..X}.}.Y.L.H e.# T ;.! ",
";.H F r 9.,.G.%XOXU.}.T 8.7.q.,.<.#.+.O.w J #.q.,.>.;.J # 9 T 3.%.F G 5 U G %.<.7.=.%.r 0.Y.K.R.T.~ Q Q Z '. XI./.P.2.'.$ g F -.",
"&.R Y 8 I 0.;.2.9.7.) n K R %.<.#.O.%.T 9 k h o.! Q Z D   V P U =.&.Y 7 t t F J G h K 2 S n.N.5.N.5.N.N.8 K 0.0.! M.).6.# K K D ",
"$ : , @ - 8 8 r r 8 2 * - 6 w d d r w 8 # : r f 8 b m v = ; - - : 5 % # - 8 6 w 8 2 , = 1 c 0 0 0 0 4 4 + @ , 1 8 b b b # - - 0 ",
"T 4.J J ! H 9.Y.S J J Z Z H +.@.8.Y.P.z.Q :.2.2.- N.2.M.N.^ S }.f 8.8.! H Q 9.|.h T Q m S E S ! W 5.S ~ ^ >.b.5.- 5.v.c.F.P.I.M.",
"A U S 3.9.! T A 8 t D D H ! F J 8 3.M.E.v.E.P.9.# 4. Xx.M.E L.9.U &.H H ;.>.T U - A ! H E H S D 0 6.5.M.V.N.M.N.* 0.x.c.D.c.I.K.",
"9 B Y &.d.g.i.a < y s k Y Y A K 3 P T ! ! ( 3.P + L d.|.3.0.].s 7 s g Z 3.T L p * V y.R &.Y L s y I I / ` ` ( P O  .).V.'.[.).D ",
"O O - @ @ # O + + * - @ % : % * X # # - ; = ; - X O @ $ * # @ O o # - - ; # - # O @ : : - # - # O + * = * = ; * O @ # * O O @ @ ",
";.@.$.h }. XT.!.!.!. XH '.0.M.5.E D J P 8 R O.<.;.;.e.$.% U %.7.F r r r Y.I.R.R./.T.I.E V.M.9.M.I.W ( 4.P 4.;.,.;.>.9.J # %.8.#.",
"O.@.$.d &.2.F.W.Q.Q.v.Q N.}.I.B.I.! N.).# K 7.q.e.;.@.G . a &.G f $.J r ;.2.U.&XT.P.V.E M.I.U.U.x.;.3.8 K K <.q.2.,.<.%.$ k F @.",
"T J k 7 l y.0.>.j.M.6.A I 0.M.M.m.` 6.i.* K G G D T &.Y @ } L 6 L Y L e =.8.9.;.>.5.5.M ( 6.L.N.m.V.( p., } g F S 7.Z g % p Y Y ",
", , 5 $ % 5 8 , 8 8 8 , , 8 v 4 v 0 8 8 O 8 8 8 8 t 6 w # : @ , : , : $ : , 8 0 0 8 8 , , 8 0 0 4 4 , r O ; 6 r 0 r f h 5 5 % : ",
"H ! J J T u.].8.J D A F J J Q Q m B.S.:.A.S.-.Y.# t $.O.F %.P A k &.8.@.7.#.3.5.D S H H Z H J H W b.K.2.K.:.;.M.# 4.<.e.,.K.oX! ",
"@.3.J T 3.&.&.8 g T A T Z J Z J m E ^.^.P.v.P.5.# , U O.F Z D t P T G F +.7.8.T t n J H H H D D v 5.M.R.P.I.M.3.+ k Y.U.F.!.B.M.",
", s K R Y P I a 9 l L k k L a a q M ! ;.! 5.4.Y o $ l y.Y R Y , - y Y R T T a < y i K K D A P L q V T 3.^ _ 6.P O ] g.'.N.n.n.n ",
"$ - @ # * * - # # * : @ t t , # O * - , ; , 6 % o $ o $ # @ + @ # # $ # @ O @ @ + # * # - # - # X - * - ; ; - = X O - # * = # + ",
"&.J U f '.R.T.^.Q.!.P.-. XK.T.P.P.^.R.'.A %.3.<.J 8.3.%.: |. X+X,XT.Y.-.R.L.F P.:XI.}.^ I.L.A.T.T./.P.9.0.{.,.T.P.I.R.'.: R 7.7.",
"@.O.%.r 7.2.D.W.W.Q.G.H K.U.Q.Q.Q.,.,.3.K T w.#.K.;.;.o.% r.Y.OXOXT.U.H 9.K.1.G.T.R.I.m M./.T.Q.J.A.c.>.D 5.U.OX=XD.P.N.O e G O.",
"3.U A w R 9.>.h.2.M.8.D 8.L./.I.N..XN.).n B d %.J J ( S # s.Y.U.:XR..XA T 3.L.7.7.7.P 4 ( '.R.U.R.I.[.n.C M M.2.v.B.V.4.O l $.U ",
"; 8 , # ; , 4 b 4 8 , - ; 8 r 0 r 8 2 v X ; 6 w 8 0 0 b & , 8 w 6 , , + * - 8 6 2 : = + 1 8 r Z r 0 0 4 & = 0 b 4 m v r * , , 5 ",
"9.I.P.P.P.^.I.}.J J J J Z J H J J 0.P.~ l.~ j.0.+ s.I.F.1.P.T.1.+.;.H Q ;.3.0.0.T D D S S S Z @.J r ! x.^ l.c.P.& b.x.S.j.!.P.,.",
"I.K.,.h.S./. XN.A D G J J D J D t A M.v.Z.Z.I.W + s.9.K.v.T.%XK.F 8.@.O.@.;.J P g P ( T J H F G e , N.I.Z.l.v.>.= s.x.F.F.c.S.P.",
"w %.0.L.N.6.3.n t a Y L I I L L ; L R ` D / D ) X { g.f.r.'.r.A 8 K K h U $.K V 2 i K K K U U K < - R ( W D 6. .X ' s.'.I.[.0.D ",
"# : : - - - , - @ : - - - - = * + + - * ; ; = = O O $ % # $ $ # # @ : % % % # @ + * # : : - - * + # * - ; ; = # X O : - @ - # @ ",
";.-.H f :XY.T.^.^.K. XJ }.5.x.x.v.B.3.s.I %.-.-.+.H 8.y.$ j |.F 7.J J G r.Z J 0.Z S L.J I.M.x.j.N.0.5.6.Z {.^.D.A.T.R.I.: U 8.O.",
";.;.J w 7.;.G.Q.Q.T.P.J 9.I.v.c.k.:.W 3.g G <.q.q.e.8.g @ j U 7.%.%.Z r 0.9.I.0.}.I.}.Q M.B.P.!.x.x.S 3.Z 8.=X#X;XQ.U.9.@ k &.*.",
"( I L , u.4.M.~ h.M.3.A ( (.m.l.Z.m.6.s.a j J D Z 8.J k $ l R A U u.Y w Y R 6.5.n.6.3.b ! M.M.v.B.>.'.s.Y a.5.>.K.L.'.0.% e G A ",
"= ; - O # ; 0 0 0 4 1 - 1 4 c c 1 4 0 0 - : w r w w Z r @ , * 1 : , % # , , 6 4 2 4 2 ; 2 0 0 v 4 0 0 ; # , b r 8 Z r 8 : 8 r , ",
"t I u.4.%.7.9.7.@.J A f A D G S E V.E.F.z.c.M.N.O ].Y.U.F.P.I.5.A &.3.;.;.H 3.r.G %.J S S H G J m ^ M.9.,.>.>.E - r.U.T.D.A.P.x.",
"I U A D T 0.7.%.F %.A =.U T U A v V.~.^.%X^.F.M.O R e.A.D.P.V.6.A &.J H ;.>.3.A r J J S Z A A U q b 0.K.K.I.5.N.O u.2.z.#XD.F.:.",
"9 a k t K K K t e j k Y k k l a a I ` 5.2.>.5.` @ | i.).5.N._.n 9 B A S W D T B 8 a A n I A k z u ' L 4.3.W ` P O ..].Y.I.M.n./ ",
"# - : O - - - % # : : @ @ O : # + + * ; ; ; 1 = O @ O @ @ # X # @ % - , , ; ; @ - - - # ; * % * . @ * * # , ; = O @ * # + , - + ",
"J D P w Z 6.V.I.K.M.'.J I.>.1.x.M.K.N.9.( }.S.A.J.P.I.'.@ &.8.;.@.@.$.r e.Y.K.U.U.K.R.H R.9.x.2.9.I.N.5.3. XK.P.S.R.P.L.@ g.$.*.",
"W J K 0 t 4.M.T.oXT.I.H 9.M.E.D.P.,.~ H b 0.R.%X$XQ.P.0.@ g f <.;.G J d t.9.S.^.^.^.K.-.<.P.F.J.D.1.~ W b 9.P.*X^.T.,X8.@ j $.*.",
"D 4.Y , , 4.N.5.>.! 6.T ( 0.B.x.N.5.n.6.t T 9.x.x.I.N.4.o | Y U %.R T g &.7.>.>.x.9.;.D J N.B.M.P.>.b.6.B ) 5.9.x.R.6._.o l g =.",
"- ; , - - , , 8 b 8 , , ; 4 0 r r 0 4 4 = 1 0 0 b b 0 4 + : 6 : : 6 : @ - 2 8 r , 2 2 - , 8 b 0 0 r 0 4 + & - ; , 2 1 * % : w : ",
"%.%.;.<.;.7.7.8.G &.@.$.3.@.G G D 0.B.c.~ h.c.I.% 0.S x.M.oXI.L.G 3.3.3.3.! @.6.J A %.Z J b 3.3.J N.B.l.h.j.>.K.# N.I.~.x.K.S.F.",
"G 7.@.F F 7.r.U 5 $.T A G F G U t 6.M.c.E.!.c.^ % p.;.:.I.x.I.N.G T S G J ! %.T A A D T D Z T R 2 7.M.v.B.x.j.N.# 6.M.h.v.F.^.S.",
"e K A I P P K 9 :  .i.X.R P L a ; L T ! ! ^ ) I X ..d.'.0.{.{.b 8 K  .u.d.g.i.a 7 a a P K B n B 9 I ( ! 5._ ( I + ' ].[.I.M.N.D ",
"O # # @ # # * O O . X X + O = # O + * - - = = O . O # @ - # & X O O @ O O . O @ o - # * - # * + O @ # - - = = + . O @ - @ # = X "
};
