/* XPM */
static char *_89cad5a2cfc4a74fff562811bdba8d8geHvzth5movGdXQM[] = {
/* columns rows colors chars-per-pixel */
"64 64 133 2 ",
"   c #070604",
".  c #0A0705",
"X  c #0C0906",
"o  c #0D0B09",
"O  c #110E0B",
"+  c #14110E",
"@  c #18130F",
"#  c #161311",
"$  c #1A1613",
"%  c #1C1916",
"&  c #1E1B19",
"*  c #201B17",
"=  c #211D1B",
"-  c #25211E",
";  c #262321",
":  c #2A2623",
">  c #2D2926",
",  c #2F2B28",
"<  c #302B27",
"1  c #322D2A",
"2  c #36312E",
"3  c #38332F",
"4  c #3A322F",
"5  c #39312E",
"6  c #38332F",
"7  c #333230",
"8  c #373330",
"9  c #363231",
"0  c #373330",
"q  c #383330",
"w  c #393430",
"e  c #383530",
"r  c #383431",
"t  c #393431",
"y  c #3A3531",
"u  c #393631",
"i  c #393532",
"p  c #3B3632",
"a  c #3A3633",
"s  c #3B3633",
"d  c #3C3733",
"f  c #3B3734",
"g  c #3B3736",
"h  c #3C3734",
"j  c #3A3532",
"k  c #3D3834",
"l  c #3C3934",
"z  c #3C3835",
"x  c #3D3835",
"c  c #3D3A35",
"v  c #3D3936",
"b  c #3E3936",
"n  c #3F3A36",
"m  c #3E3B36",
"M  c #3E3A37",
"N  c #3F3A37",
"B  c #3E3936",
"V  c #3F3939",
"C  c #3F3B38",
"Z  c #413936",
"A  c #403B37",
"S  c #403A36",
"D  c #403B38",
"F  c #433B38",
"G  c #413C38",
"H  c #403D38",
"J  c #413C39",
"K  c #423D39",
"L  c #413D3A",
"P  c #423D3A",
"I  c #433E3A",
"U  c #433E3B",
"Y  c #443C3A",
"T  c #443F3B",
"R  c #463E3B",
"E  c #443F3C",
"W  c #463E3C",
"Q  c #473F3C",
"!  c #423D3A",
"~  c #45403C",
"^  c #46413D",
"/  c #46413E",
"(  c #47423E",
")  c #47423F",
"_  c #46413D",
"`  c #49423C",
"'  c #48403E",
"]  c #49413E",
"[  c #48423E",
"{  c #474340",
"}  c #474240",
"|  c #4B4340",
" . c #494440",
".. c #484540",
"X. c #4A4541",
"o. c #4A4542",
"O. c #4B4642",
"+. c #4A4643",
"@. c #4B4643",
"#. c #4C4441",
"$. c #4D4640",
"%. c #4D4542",
"&. c #4C4743",
"*. c #4B4744",
"=. c #4F4744",
"-. c #4B4542",
";. c #4D4844",
":. c #4D4845",
">. c #4F4A46",
",. c #4E4945",
"<. c #504845",
"1. c #534C46",
"2. c #514A46",
"3. c #514C48",
"4. c #514C49",
"5. c #524D49",
"6. c #534E4A",
"7. c #554D4A",
"8. c #534F4C",
"9. c #544F4C",
"0. c #534D4A",
"q. c #57504A",
"w. c #55504C",
"e. c #56514D",
"r. c #58504D",
"t. c #59514E",
"y. c #58534F",
"u. c #59534E",
"i. c #5B5350",
"p. c #5B5551",
"a. c #5E5954",
"s. c #655F59",
"d. c #65605C",
/* pixels */
"1 1 2 1 > > > : > , > : > , , 7 1 2 [ 1.q.1.%.T < O O g 2 2 < = - - : , , % o , : , , , 1 5 W #.=.%.Y q 1 1 8 < 2 p > o $ *.7 7 ",
": > > > : : ; ; ; : > ; > > > , l 2 T :.&.%.[ Z 1 O O Z 2 2 - - > 2 7 , , & o 7 : ; > , 1 Z Y ] #.=.Y 1 1 1 9 > 2 g > O * 9.7 , ",
"% # % & & * $ # O # # # & & - = : = > 1 1 > > - $ o O , , > $ - > 1 2 > ; % o + O # # * * = ; : 1 5 1 : - - = & = : = O = - $ $ ",
"+ # # + O o O O o o o o o o + O # o O # O O O X o . # o o O o o X o O O o o o + O o o O # # @ + O O O O O O O O + O O @ : + # O ",
"7 7 q q 1 2 > > : ; : ; ; > , 7 , > % % 2 5 1 : = = = - < i i 0 3 1 = % - & ; > ; ; : ; : : 1 > < < : : - - * = > > - : < q 4 4 ",
"4.8.:.%.[ D l l 7 g g 9 7 7 V g z l & + %.7.<.&.o.^ D P [ %.:.4.*.` o % +.+.U H i i g g Q :.Y 1 4 p z g z z O = 4.u.q.7.<.i.t.9.",
"+.z z D i , > - : : > ; : ; ; : > > & + ^ 2 > > > > : : 2 i 0 1 : , o + ^ , > , ; ; : 1 i > ; = = = : : - < O = 2.4.%.R z %.[ ^ ",
"z i i i 2 3 , > , > , > > : ; : : : % O Z < , > 1 , ; : 2 2 l 1 > , o # _ ; ; ; ; ; > > * & & & * = - : > 1 + = *.q.R T P ^ o.T ",
"i 8 0 8 1 1 : : > > > 2 2 2 < : - ; + O c 1 2 1 > > ; > > 1 1 1 > > O @ H : - - : : : % $ $ * = ; ; : : , 2 + - ^ P H 3 H T [ m ",
"2 2 2 2 2 i 1 < - > i P P ^ p 2 > -   # c > > > ; ; : : , > > 1 2 2 + @ m : - : , , % % $ * : : > > : > 1 1 # $ P P i 3 l z m 3 ",
"1 1 1 4 z z q 5 l z ~ ^ 2.^ F p 7 > . # c 2 2 , > : 1 < , > , 1 7 1 X # H ; ; : 7 = # & ; : 1 1 , > : > > 1 # + ^ C 2 > 1 2 2 2 ",
"1 2 1 p T p < p m ~ :.:.w.[ Z 4 0 > o + l l l 2 > > 2 1 , , > 2 1 - X # H - - , : % # & > 8 q 2 1 > > : > > # + m 2 , ; > , , 1 ",
"- & ; : < - = - : l H 2 , 2 > - - = o O Q T g 1 > 1 2 l 1 > > 1 , , o # ; % = ; & % & = > > - % = & & & - - o O - = = $ - % - & ",
"o o o o X . o X + + + O O o O O X X X O :.T g 1 : ^ [ p 2 : - : > : o # X   o o   o O O o o O O O o . X . . o + O X O O X X o o ",
"# & & ; - - : < 1 < 2 : - - = = = : ; & 1.Q Z 4 4 :.[ z < : > : : > O o : > : : ; > ; ; ; - - = * * & * = - - = - = - = = * % O ",
"# E *.E z P [ e.a.a.u.q.` ~ l 3 2 Q & $ 1.[ Z 1 z %.T p 2 > : - : > O o ..l c c ..*.,.,.*.*.*.~ Q P g V T P T ^ 1.1.4.1.*.Q g o ",
"# P 1 : > 2 Z *.{ _ U l 2 , < < 1 Z = * 1.T p 1 H ~ l 4 2 1 < : > : o O P : : 1 i P Q [ z i g 1 1 < : > , 1 1 2 1 1 1 , 1 1 : o ",
"# g 1 - > 2 z C C C 7 2 , > < 1 3 z = = q.H 1 1 3 l i 2 1 2 2 : > 7 # O _ : , 1 p P Z [ P g 9 > 1 1 > , < < 8 1 , , 1 > > - ; o ",
"O 4 : - ; , 2 1 1 1 , > ; - : < 3 ~ = * q.z 1 < 1 3 l 2 i p z 3 1 , # O ^ > 1 i 2 z ~ P z l > > 1 < > > , , 1 1 > - ; : : ; - o ",
"# > = # # $ % = & ; & + o O O + # - + $ m = $ $ % - - - = - : - = & . + : O # % - : : : - = $ $ & & & & $ & & * = $ % = * & & . ",
"% + o + # o O O   X X o O # # # # # O # o o o o O + @ % # # * # + o + & @ O # $ @ % + + + o O O # O + O o o o o X X X . . X . . ",
"7 7 7 , ; & & ; > > , , > o # , 2 2 > : 1 2 1 > > 2 i i 4 4 p g 1 ; ; ; : : = > , < 2 < - : ; & 8 Q V E V 1 1 : : ; , , > , 1 2 ",
", 9 > > > > > > 7 2 2 7 -   $ C i m ~ ^ _ *.+.C l ~ 7.%.T [  .%...m c C Z g q p i H C l z +.: O g Z z D i q q q : , 2 , > > 9 > ",
"> > > - ; > 1 > > > , 2 ;   & C 4 4 2 l i 2 2 , : 3 [ [ H i 1 1 > , , ; : = : - : , : : > , = O 9 q 2 4 q 2 q 1 : : , > : > > 9 ",
"> > ; ; : 1 1 1 : > 1 > ; o - >.i P Z i 7 : : : : 8 g [ ' Y q 1 > = - - - - - , : : > > > , = o 3 i 3 i z 4 1 < 1 9 , < > > 1 > ",
"> : : > 1 2 2 1 > , 1 : = O > >.z H l 2 > : : ; 1 9 1 2 9 9 q 1 > ; - ; > - , > > : : ; ; > ; # H P Z P 2 < 4 i Z 1 > > > > , > ",
"> : > : 2 i l i 1 1 > : ; # > y.g i 2 < > > > ; 1 , > > > > > : ; - = > : > , 1 1 > : - : > ; = [ ^ 3 2 i l Z P g > > > > : , > ",
"> : ; > 2 i 2 3 1 > : 1 = + ; >.8 1 1 : > , , ; : > - ; ; : > : - ; - ; : , 2 l l 3 , : ; : & $ z i 2 Z H 4 i p 1 ; : > > : > , ",
"O o o o o + + + # # # $ # o - ; * & = - & - $ % = : - = = ; * * & & $ $ = - > ; - > ; - = % O + = + % % * $ * * $ + + + O # + + ",
"# + + # % % @ + O o o o O $ % O O O O O o o o O X X O O + # # + + # o O O + + # @ + + o X o + = - = = % # # + # O o o o O o $ # ",
"& ; , 0 C { C 3 1 > : - > > ; - 9 g Q  .V 1 1 1 > : : > = $ = < > 1 1 > 1 q p 4 3 3 1 : < 1 l P o.[ - 5 V i 9 9 , , 1 , , 1 9 ; ",
"# E { C U 4.:.*.[ z P C 1 & & > V  .>.4.^ 8 i z Z Z [ &.= # p [ ~ _ %.%.1.7.r.1.2.w.%.[ %.2.u.d.d.Z @ 3 9.Q Q Y Y Z } V V } #.$ ",
"+ V 2 > > 2 i 3 < , < $ * = = : 1 i g z > > 1 z H p 3 l = + 4 P , , , , 2 2 1 < 1 4 < 5 d ` q.i.1.* X 5 q.l 2 , > : 1 1 0 i g # ",
"o P 1 , 1 < 1 2 i > & * = > , , i q g p 1 2 [ Q 3 3 z [ - + 4 H - > , > 2 < 2 : < 1 2 S ` p.d.R $ @ X 1 4.S i 1 > : > 1 1 1 1 # ",
"+ P i 2 1 1 4 p V = * : > 1 5 9 p q z i > Z Q z < 1 1 i - + 1 z , > : 2 1 2 2 : < 3 Z R u.q.1 * $ @ X * + O o O . o o o X o o . ",
"% P i 2 > 2 3 l i % ; < 1 4 p g Z i i 1 > 3 Z 5 > > < 2 % X 4 p , : 2 < 2 4 3 < 4 F ] =.1.- $ $ = = X = : - = % # # # # % = & % ",
"@ ^ z 2 2 4 S [ 4 = : 1 5 s g 9 2 2 , , 1 p p 9 > > 1 > & O p [ l 1 2 4 4 l l 2 p [ 1.F $ + # % : : X 1 t.%.2._ g 8 q 8 7 C C o ",
"O = = = 2 %.<.<.2 = - 1 , s 4 s 2 , : > 1 5 q 1 : > , : * O [ 1.p p P z z z p p Z =.Z @ O # % - < : X < 7.H i > - - ; ; > ; > o ",
"o - % % = : F S 5 - 1 1 1 , 1 > > : , 1 p 5 4 , : : > > - + %.7.Z P ~ H l l p p [ p @ O @ $ - : < - O < t.l < > : - = ; , - ; o ",
"o > & - = * * = = - - < 1 1 , 1 < < 2 D g 9 5 : , , , 7 - @ 7.t.Z z Z Z p p z Z 4 $ O @ $ = : > 1 = X - _ 1 : - - - ; : , : - o ",
"o # + # % % % # # # $ O + $ & * ; & - > : : = $ # = - = # $ %.7.i 1 : < 1 1 1 q # O # $ = : , 2 4 = o - [ 5 > : > ; : - < > : . ",
"+ o o   o o X o X O O O o . . O o O O O + # # O + O O O o = [ 1.2 > < < < > 1 - O O + & - , 1 2 q = X : T < > > : > : : < < > O ",
"o & % % & & # & = = = * & + = ; : < > 2 i p 1 : : = @ * & % ^ [ > 1 4 2 1 5 9 # o # $ ; > 2 2 i i = O - g : > : : - - : 1 : > O ",
"o H ~ ~ H H ~ ~ P P Q D : O * 9.4.t.7.e.a.s.a.q.~ H T ~ % o l [ 4 i 3 2 1 9 > O + % - ; , 4 g i q - X - l - : - - = - > > > > # ",
"O ^ 2 - - > > > > 1 1 < = X & 1.l l p i 4 p Z 2 < 2 1 1 = o l ..4 2 2 2 1 7 % # # - > , i V P l i - X ; z : : : : : 1 4 5 1 1 $ ",
"O %.l : - 1 1 > , 8 z 1 * X & o.p < 4 2 2 l H 4 p 1 1 2 - O 0 _ 1 1 , 1 1 1 # # & : , 1 l C C z i = X : T < 1 1 < 1 p H Z p Z * ",
"+ %.3 , - > , > 1 Q q 1 * O $ [ 4 > 2 i l , S H i p 2 2 - O 2 ~ > > > , 1 , $ % ; 1 8 2 8 z P c q : X < ^ 1 1 < < 2 3 H Z S p - ",
"O o.l < - > > , 1 E 8 1 = o # ^ 1 > 1 2 3 < 3 3 i 3 3 2 = O , C > > : , 8 , $ & : i g 8 V l l 3 1 : . 9 [ 1 q 1 1 3 4 Z Z T Z - ",
"# [ g 5 > & > , C 3 2 < - o & H 7 - , , , e 7 7 2 7 7 2 & o > C : : : 2 2 : % - , 7 l , , 2 2 1 1 -   2 Q 4 2 < q g q p q Z D - ",
"$ < > * # + # $ % # % = % o % ; # + # % + + % & + - - - # O 2 0 - = & ; : & + # & ; : - - : ; - : & X & $ * = = : = * * * = - # ",
"$ O O O o . o o o o o o o o # o o   X + + O + o o o . o o + o   o   X X . . o . o o o X o o X .     . X X X X o X X O O o o O O ",
", : : * = $ # $ & - - : : - = % # + + & & & - = - & $ % = & & & ; ; ; - & & $ $ $ % + + $ % $ # & & & & = = $ = = > < 1 , , , > ",
" .o.*.*.4.> o + ~ l _ ~ ..H _ H m % = ,._ g i 1 C ~ _ _ _ _ _ >.w.w.8.+.C m 0 0 7 , + O _ 2 3 2 7 9 g q D D Z ^ P z 4 z _ m ^ *.",
"> > > 1 < : . # P , 0 1 : 7 u 7 3 = # 2.> : ; ; - - ; - > 2 H _ *.>._ c , ; - - ; ; o o ~ - ; - ; : < > < > : 1 < > < 2 2 , > , ",
"< > > < 1 : . # ~ < 2 , , 0 c l z : $ >.7 , : : ; > - > , 7 _ *.*...H 0 , - ; ; > ; + o ~ ; > - : , 1 q 4 q 1 1 1 1 2 2 2 < , , ",
", < : ; > - . $ ~ 1 , > 1 0 c C P ; & *.l 1 > : - > > > 1 u _ _ _ C l 1 ; ; - > , > o o ~ - : > > 9 i g g p 4 2 4 p z p 2 2 < < ",
"% # + + # +   + - $ # % $ = - & % + $ = & & $ # # % $ % & - - : - & % @ # % $ # # #   o X # % @ % $ = - = = % % $ $ * $ * * = = ",
"o o o o o   o + # # $ # # + # # $ % $ O o o o o o     o o o O + + + o o o o o o o o X       .   O O O O + @ # @ $ & * # O O O O ",
"2 7 1 2 7 , e c l 3 1 < , 1 > > > 1 1 < > , 7 , , + % & ; ; > 1 2 1 , 1 1 % + ; 2 2 1 1 7 , > , < < > : - < < < 1 8 q # : 4 g p ",
"~ c H H _ H ( ( *.4.:.^ H z c l V P P g g 7 g V g o # g g l 0 V g l 0 3 - . # _ P 2 2 1 > > 2 2 4 4 3 3 4 l H ~ ^ 4.z o - p.%.%.",
"e 1 - - - 1 7 < e 1 2 - > > > > > > , < 2 l p 3 , o + , : ; > : - > % - > % % m 3 : > - - - - < < < : : : < 1 > < 5 : X = e.3 2 ",
"> , : - : 1 2 1 < 1 1 - : : > - > > < q H ~ ` Z 7 o o g - - ; ; - % % : , $ # P 4 < 1 > : < 1 5 i 1 < 1 < 1 4 < 1 1 > X = 7.> 1 ",
", > : > > 1 1 1 1 1 2 > > > > > 1 1 1 Z %.1.<.P 2 O O g > ; $ @ + % = : : % + l 4 5 1 < 1 1 S T F S p 2 2 4 3 < 4 2 - X # *.1 > ",
", > , > > < 1 < 1 1 < - > , > , 1 q g  .1.i.<.T 2 O O g , 1 , % = - : : < # O 4 1 1 1 < 1 5 ` <.` ` Z 4 2 2 2 2 4 4 > X % o.> , "
};
