/* XPM */
static char *db396a0e89044ca5ee0f7c318d0cc886iMo0VYaEjEoTE8eE[] = {
/* columns rows colors chars-per-pixel */
"64 64 188 2 ",
"   c #080C17",
".  c #0B0E1A",
"X  c #0C111C",
"o  c #10121E",
"O  c #0E1422",
"+  c #0F1826",
"@  c #0E1929",
"#  c #121624",
"$  c #131926",
"%  c #121729",
"&  c #141B2C",
"*  c #191E2D",
"=  c #161E31",
"-  c #191F31",
";  c #1D2323",
":  c #16202C",
">  c #1C252D",
",  c #1C2A2D",
"<  c #162233",
"1  c #1B2234",
"2  c #15243A",
"3  c #1D263A",
"4  c #1C2A3D",
"5  c #202F2C",
"6  c #24322F",
"7  c #222D34",
"8  c #20263C",
"9  c #222B3D",
"0  c #282A3F",
"q  c #24323B",
"w  c #2A353D",
"e  c #27383F",
"r  c #2B3B3B",
"t  c #172740",
"y  c #192741",
"u  c #1D2C43",
"i  c #1F3045",
"p  c #1F3149",
"a  c #202640",
"s  c #242E44",
"d  c #292E45",
"f  c #262E49",
"g  c #292E49",
"h  c #253146",
"j  c #293246",
"k  c #273840",
"l  c #2C3942",
"z  c #25334A",
"x  c #2B344B",
"c  c #26384E",
"v  c #2C394E",
"b  c #31364D",
"n  c #31394E",
"m  c #253651",
"M  c #2D3651",
"N  c #253951",
"B  c #2C3A52",
"V  c #2D3E59",
"C  c #313751",
"Z  c #313C52",
"A  c #313B55",
"S  c #313B56",
"D  c #343B55",
"F  c #303C54",
"G  c #333D56",
"H  c #323A52",
"J  c #393D52",
"K  c #323D5B",
"L  c #303E5B",
"P  c #343F5B",
"I  c #303D5F",
"U  c #313E5E",
"Y  c #353E5D",
"T  c #363F5E",
"R  c #333D5B",
"E  c #383F5C",
"W  c #353E62",
"Q  c #2E4055",
"!  c #2E415A",
"~  c #334050",
"^  c #354052",
"/  c #334354",
"(  c #394456",
")  c #384857",
"_  c #36405B",
"`  c #35415B",
"'  c #32405D",
"]  c #33415E",
"[  c #37415D",
"{  c #35435F",
"}  c #32435A",
"|  c #3E425B",
" . c #3D455A",
".. c #39405C",
"X. c #3A415D",
"o. c #38425D",
"O. c #3B425C",
"+. c #38415E",
"@. c #3C435F",
"#. c #3A445D",
"$. c #3F455F",
"%. c #3A455C",
"&. c #3B4A5C",
"*. c #3D505F",
"=. c #344161",
"-. c #354262",
";. c #354360",
":. c #374663",
">. c #354464",
",. c #394460",
"<. c #3C4661",
"1. c #3E4562",
"2. c #3C4763",
"3. c #3F4662",
"4. c #3A4565",
"5. c #384567",
"6. c #3E4764",
"7. c #3A4565",
"8. c #344A65",
"9. c #3B4A65",
"0. c #354669",
"q. c #394768",
"w. c #3A476A",
"e. c #3B466A",
"r. c #354A6B",
"t. c #3E486B",
"y. c #3D4A6A",
"u. c #3C496C",
"i. c #3C4B6B",
"p. c #36516F",
"a. c #3E516F",
"s. c #354870",
"d. c #3D4A70",
"f. c #3C5372",
"g. c #44465B",
"h. c #42445D",
"j. c #43455E",
"k. c #414B5E",
"l. c #404763",
"z. c #404565",
"x. c #414665",
"c. c #424963",
"v. c #444861",
"b. c #454963",
"n. c #414864",
"m. c #424965",
"M. c #414B64",
"N. c #444967",
"B. c #464A65",
"V. c #454C66",
"C. c #414A67",
"Z. c #484C65",
"A. c #404968",
"S. c #424868",
"D. c #424B6A",
"F. c #434C69",
"G. c #424B6C",
"H. c #414B6F",
"J. c #434D6C",
"K. c #494E6A",
"L. c #4B4F6A",
"P. c #514F65",
"I. c #415063",
"U. c #42516D",
"Y. c #4C526D",
"T. c #495A6E",
"R. c #595A6F",
"E. c #414E70",
"W. c #445273",
"Q. c #4B5373",
"!. c #475A73",
"~. c #4D5D76",
"^. c #465479",
"/. c #4A5779",
"(. c #455C7D",
"). c #4B5A7B",
"_. c #535470",
"`. c #555D70",
"'. c #515C7D",
"]. c #4C617D",
"[. c #5F6072",
"{. c #55607E",
"}. c #485F81",
"|. c #535B80",
" X c #4C6282",
".X c #546582",
"XX c #586987",
"oX c #5A698A",
/* pixels */
"x <.S.l.V.@.6.O.$.2.0.0.=.0.f V V V I U U =.S = h.b.z.+.P ` ` f ` g z x z M M M x M z 3 C.C.t.t.E.D.<.T R ` <.+.+.%.T U +.<.<.f ",
"N.x f f h f f s M j M M M B x f u h g f j x f = D.M x x f s s h D h g j x x S B B B M - N.A x g f z f x s s s h j j z s 9 h f 1 ",
"L.h h 3 B j v j z h z M M M z s h h j x v M x = { M B M j z f z x x g z z x M M M M x 1 l.j x j h s f h h s s f x z x h s f h & ",
"L.h f x M C x x 4 x j j z z s s j z M j x v v = T x j z z j z M @.j z x M x x x x x g 8 +.h j j h f z j s f z x x x v f f h h * ",
"N.h h v C B n B M 3 x z z j d x x j g j d j v & ,.z v M z j h z $.x x x z x M z x j j & { h j j h h z z f s z j M A v j h h z - ",
"v.s 9 j C C B n v x x s s d j j d 3 3 8 j 8 s & t.j j z z s z M $.m x x M z m M n C 9 3 { h j h h z z z h h z x C A b v h h s - ",
"v.f s s x Z Z C M x 8 j s j j j f z x M v j M # e.z f s s h j z P M v x M z x M D n 3 - ] h f h h z f x h s j x G Z b M C z s 3 ",
"N.h s h x v n v C C x 1 v j x n x M M M v x z $ =.z j d h f h j n v B j m x x M B j h = %.s s h g h h b l h h x n B B B G f s 1 ",
"C.s s h C B C A C b v f 9 1 0 j x M B B x j z & 6.d x x 9 s z x g.x b x M x M C C 9 q 1 ~ h d d j w d x e f f z B C M C M f 9 8 ",
"D.z 9 h v M B B b v x h s s z 1 Z C n v j s M , y.j b B z 1 z M h.x z x B C b C C 9 w 9 ~ z f x x b x x j s f z v x B v z f 3 1 ",
"t.x s s j M j j d j j h 9 h s f 9 B A C M z x 9 F.B M C j s 3 1 f , s h M B M B j h q j ^ j z x b b b x j f f z z x z z z s 1 X ",
"e.M z s s s s s 9 s s s h j j j f 1 M A B M x 7 9 9 - 1 < & 3 = 9 1 $ & 1 1 1 * $ : , r e x 3 < 1 - - = - $ & < 1 1 = & & % X   ",
":.B j j j f s s s 9 s j j x x j h s j B P B B 7 &.).9.9.] +.9.,.D.E.F.R 2.Y.J.h XXi.r.8.}.(.].]. X8.8.N 0.r.a.i.8.8.:.p.f.! r.2 ",
">.M v B v v j x s 9 j v n j h h s f M S G C v > V.M M x s s s s j x x j 1 4 d 3 U.z N N ! ! ! } R } z 2 p z c c m c z N z i i 1 ",
"w.M M B M B n v j j b Z n s s h f 1 A A A B B 1 E.M x z s s h f h j b b w 0 9 - i.h c B B ! ! ! ! ! c u z c N m c c p c z i i < ",
"e.x x j j n v M b B n Z v h s 9 3 x v b B A M s E.z f s h h h j f s x x r x x : f.c z c V ! ! ! =.N z z p p m m m p c p q i p : ",
"e.j b x j f z j j v n M M f 8 9 x x x b b x x 1 y.z s s h h f s 9 9 f x j v M s a.c p c B ! ! ! ! N N c 3 p z z p h p i q p c : ",
"d.M B v M z s s s f h j z h f z g x b b b b v 1 t.M h s x j f z j s j v C M C 3 8.p p N ! ! ! ! ! N c m p h i u p u i q i p p @ ",
"W.M B M v u f s f d s h s 1 x z j j v b x b C 1 w.s h j x z x f z j x M x b x 1 8.z N N N ! ! ! ! V m c p p p c c i q p p c z 4 ",
"d.B M x x i h h M B h f z - z j j d j d x x C 1 B f j j S S x z j B x x j h f & i.c N N ! ! } ! ! N N p h 4 p c c ~ q q z p c u ",
"i.B j s s h h h v Z n v s < f j j j j x l b n * ,.f j j C C n x C n x h j z s = f.m N p ! ! } ! V N c p p u c c B ~ c i c p ! 4 ",
"d.v x f s f j j C H Z B M 1 s h d j j b b b b 7 { s h j C D D M C v x f B x z % a.c N N ! ! Q ! ! N p z p c B Q Q Q B z c p p 2 ",
"0.x x f z M B +.A C G R B y f s j x b b j x d 5 P s f z v v A M x x h M B z z = a.N N ! ! ! N N c p c z u c V B ! ! v v p c i 4 ",
"& $ $ O + $ . $ & & & & & # $ % $ # o o o 5 5 o 7 , & $ $ & 1 1 1 < & 1 & $ + X r.z N N N N c c z z p u z V v B ! Q B c p p z : ",
"P.Y.J.G.V.F.U.Q.W.W.E.W.Q.d V.U.Q.E.5.5.2.,.9.2.0.>.5.5.w.i.t.& r.s.r.d.>.! ! 2 8.p c z r c c i z h p p c Q Q B N B V c h p c < ",
"V.B z f h f j z j B M C M 3 j v v v x f s s s s x z x j j C M < 0.f z j u 2 4 $ 8.i z i k p p c p p i Q Q v ~ V ! ! ! M z p p 1 ",
"L.z z s f f h z z M B B x f s v v x z z z s s 3 f C M u a M S - 0.z h u 4 2 4 $ ! 4 p p p p i 4 i c c N c c N M N Q ! N c h z : ",
"_.j h s z j j z m x x x f s 9 f x x j f d s s s x v j f M M M & 0.z y 4 4 4 h + 8.i 4 c c 4 c c Q N c ~ B c N c c v M c c 4 c 2 ",
"Y.h z h s f j h x z M z f s f f f f s s s z j v b h h a x C V * I s y u y y 1 + p.c 4 i i h N B B B c c Q c c z h h k h c h k < ",
"l.s s h h s f d f x x x x m z h h f s s h x x b j f z 3 v C M - m y u y y 2 2 < p.B z 4 2 c B B N Q N k c N c c k c c c c i p < ",
"j.h s j j x f s f z j z z z x z h j f s h x b n v j 3 x x M M & m t t 2 4 2 t < r.N c c c c c B N c c h h c N c c p c p Q h i < ",
"V.j s h v v x x s h z z j x x v x z s z j h h x x b x 3 M C B + 2 = @ = O & < ; z k h 1 4 4 4 p < 4 4 < : @ X : 2 2 : : @ @ & + ",
"L.j f s v b v x s s h z x z j v x h 1 z h s 4 h h x v z 3 M x & _.D.U.G.D.9.y.y.6.S D.u R.E.S E.E.G.Q.d.t.5.D.9.t.i.J.D.9.5.q.z ",
"D.x f s g v M j s s f h z s s 4 9 f z g h h h s 9 d x x z , : $ L.z j h h z j 1 1 j j & n x 9 h j x j j j z h s h z z z s s h 3 ",
"6.M g s g v M h s s f f s s s s s f j z j z s s h h j x x l 6 $ L.j j j g 3 C C b b x & D.f & z z f M b v x j j j j j x 9 s f 1 ",
"t.C j s z x M s s h j z j z j h j z j h j j h s s z x j B C w $ E.j j h j s M C n n j - V.g f s 1 f v B v v x j z j j j z z z 1 ",
">.C x s z h f 4 h z h f j x x f z j j j j z s h f j x M D J l * W.x d f s h 9 M C n b $ D.s f f f & s j x b b x x v j j h z f 1 ",
">.v v s s s s x z h j j j v C f s B Z l j j h j j j j M n H n 1 /.C z f f s s s B C v & G.s h s h f s 1 s M x v v v v l s j j 3 ",
"5.n C h 9 s s x x j z x x b D j 4 Z C D v x z z x j x C D J S - /.B Z z s h s z 9 s B = W.z x f j h z z 9 < w M v x x x 9 x x d ",
"w.C n j u s s z z z z b b b n h 8 M n n v M x x M x v b C H S $ ^.M v x z s s f f f u % t.M M z M x j z h j > w v x j h h x j 8 ",
"q.v b h 9 s z j g f M v n C C f 1 B A C n C b B v v n B C G M & E.v v x z f s h h z f & E.x B M v n C Z j f 3 1 d f z z f d d 1 ",
"i.j z z 1 g j z M M M M n n v a 1 v x v x x C C Z C v b n n M & y.M g x z h s h j x j = W.x M B C n G D x h f z 1 8 z j d h j 8 ",
"w.g f 1 f m x x C C C M M M z z s g M M j d v B v B x v C C T # w.j z z h h s s z x M < ^.x B C B n C G M h s h f j z j j g z g ",
"# & # O # $ = = % % % - & % # O   . X   O # # O & & $ : $ $ & O 5.s s s s s h f f z M 3 W.C M M B b H C M z 3 f j v n C D b f 3 ",
"W D W E 5.W M W W H.W W e.W I W g t.5.$ `.T.*.a.8.8.8.8.p.f.p.< ,.s f f z h h z h s x & W.M B A C Z H D M j 0 f j Z n D b n x # ",
"z.g g g g C M g M M M g g f a & g g x 1 (.z q h h z h c c c v $ G h j j z f h z z h g & d.M B B A C v n B z s 3 z j j j j x x & ",
"z.g g g g C M C M M C M g g d a g M v - f.p e x c c h z c p i & ` x x j v x M M j x d - t.x M B B v Z n M z s 0 h d h s f j b 0 ",
"z.d d g g g g g g M M g f g f g g M v 4 ].Q x c c Q c c c i p : t.x M v x x z x v v x & y.z M B A G Z C x h s j x j s h h x x 8 ",
"N.g g g a g g g g g g g g d f d b M M % /.M v c c c N c c i c < E.M B x z f f j v C x - e.x x D G D C v h s s h x x j h h j z 8 ",
"Q.g g g g a g g g g f d g g g g g M g % W.z c c c c v r 4 c p < E.j j j s z s f x b x $ e.z x v D n n x s h h h x b x j h j j 8 ",
"e.g g d a f a g f a g g f f g M M g g $ i.c c N c c c 4 p c N 6 y.j g 1 f z x f z f x % y.z B M b b x z s h f d x x l j j j j 8 ",
"W C g g g g g a g g g b f f g g f a f # i.z Q B N h c z p c Q 5 7 $ & % % - & + $ # O   E.j j j j z z s s f z x b b j x x b j 3 ",
"W C g g f f f g C C C C g a g d a f f # r.B B N N c e p N B N 7 |.W.I 6.E.G./.E.y.{ 5.& d.h f 9 f s h 4 h h M x j l b x b b j 3 ",
"W M g g g g g g g C d g g g f a f f g % p.c V c c p i z c Q c , t.M f f g x C B M M x $ i.s u s s s 9 s 4 h M x x x b x b b v 8 ",
"W M g g g g g g g g d g g g f f g M M & 8.r l h z p u c N V p & 9.h f s j v v M B M h & 5.u h h s h s f f d j v b v x x b b B 1 ",
"% % - - - - * % % % % % % % - % & $ $ $ 4 : & & : < + & & : + X w.v j s 8 s 8 s a s h = x < 1 1 * & 4 3 & $ $ $ 8 - $ 1 * * $ o ",
",.E.,.,.2.5.C.W.S.D ] ! :.i.9.f Q.J.W.W.E.W.W.D.:.w.w.6.i.i.t.s 5.x l h s j M x v b g * R.{ .X.X.XoXoX].{.].).!._.}.'.{.'.Q./.}.",
"j j x B v v C v g f h 4 f v n 1 W.x j v j x j g h f h s v D D 1 w.j j j s x D C J J b - ~.v } &.9.&.&.&.&.~ Q / $.M B j j v x d ",
"j j x n v Z C G x f 0 s f x j 1 J.j j j g j x x h 9 j s x J J * i.j j h s b n J ( J B 3 ].~ } &.I.&.&.&.&.) ~ / h.x b b j j j f ",
"j j z j x B D Z b x s 9 s j d - J.j x j g j x x h s d f f v v & ^.s 9 s s x n J J G C - `.v ) &.*.&.) ) ) ) / / %.j b x z f h f ",
"f d j j x v v C b D v h h j j $ y.h s 9 9 h j j j j x f s h h & W.9 j f j s d x n n v $ ].v v ) k.*.^ ) ( ( ) /  .j b j x j j f ",
"z f j x j j j Z D n b x f s s # ] s j s s s z f j x x x h f f $ W.0 x v h f 4 0 h h f $ 9.~ / ) *.&.~ ) } / } / ( j b l x j j j ",
"h s h j j j j x x x x j j s s * 5.s f j f f z 9 j j x j j f x $ W.j x x x x h h h h z X !.) } / ( ( / ~ / Q / ( J h x x h d s h ",
"s 3 8 $ $ & 1 1 8 8 - s 1 1 * X s 8 4 8 # 8 3 - * 1 1 8 f y - X W.j j x m z x j j j z   h w 4 7 q s 9 7 7 4 w 9 8 1 * 3 1 1 1 1 "
};
